<?xml version="1.0" encoding="UTF-8" standalone="no"?>
<!DOCTYPE svg PUBLIC "-//W3C//DTD SVG 1.1//EN"
 "http://www.w3.org/Graphics/SVG/1.1/DTD/svg11.dtd">
<!-- Generated by graphviz version 2.40.1 (20161225.0304)
 -->
<!-- Title: dependencies Pages: 1 -->
<svg width="980pt" height="284pt"
 viewBox="0.00 0.00 980.00 284.00" xmlns="http://www.w3.org/2000/svg" xmlns:xlink="http://www.w3.org/1999/xlink">
<g id="graph0" class="graph" transform="scale(1 1) rotate(0) translate(4 280)">
<title>dependencies</title>
<polygon fill="#ffffff" stroke="transparent" points="-4,4 -4,-280 976,-280 976,4 -4,4"/>
<text text-anchor="start" x="465.0091" y="-42.4" font-family="sans-serif" font-weight="bold" font-size="14.00" fill="#000000">Legend</text>
<polygon fill="#ffffb3" stroke="transparent" points="252,-10 252,-30 272,-30 272,-10 252,-10"/>
<text text-anchor="start" x="275.629" y="-15.4" font-family="sans-serif" font-size="14.00" fill="#000000"> &#160;Declarations</text>
<polygon fill="#8dd3c7" stroke="transparent" points="365,-10 365,-30 385,-30 385,-10 365,-10"/>
<text text-anchor="start" x="388.7251" y="-15.4" font-family="sans-serif" font-size="14.00" fill="#000000"> &#160;Module</text>
<polygon fill="#80b1d3" stroke="transparent" points="451,-10 451,-30 471,-30 471,-10 451,-10"/>
<text text-anchor="start" x="474.7812" y="-15.4" font-family="sans-serif" font-size="14.00" fill="#000000"> &#160;Bootstrap</text>
<polygon fill="#fdb462" stroke="transparent" points="548,-10 548,-30 568,-30 568,-10 548,-10"/>
<text text-anchor="start" x="571.6732" y="-15.4" font-family="sans-serif" font-size="14.00" fill="#000000"> &#160;Providers</text>
<polygon fill="#fb8072" stroke="transparent" points="644,-10 644,-30 664,-30 664,-10 644,-10"/>
<text text-anchor="start" x="667.7258" y="-15.4" font-family="sans-serif" font-size="14.00" fill="#000000"> &#160;Exports</text>
<g id="clust1" class="cluster">
<title>cluster_WorkoutRunnerModule</title>
<polygon fill="none" stroke="#000000" stroke-dasharray="1,5" points="8,-70 8,-268 964,-268 964,-70 8,-70"/>
</g>
<g id="clust2" class="cluster">
<title>cluster_WorkoutRunnerModule_declarations</title>
<polygon fill="none" stroke="#000000" points="238,-78 238,-130 956,-130 956,-78 238,-78"/>
</g>
<g id="clust8" class="cluster">
<title>cluster_WorkoutRunnerModule_exports</title>
<polygon fill="none" stroke="#000000" points="416,-208 416,-260 608,-260 608,-208 416,-208"/>
</g>
<g id="clust10" class="cluster">
<title>cluster_WorkoutRunnerModule_providers</title>
<polygon fill="none" stroke="#000000" points="16,-78 16,-130 230,-130 230,-78 16,-78"/>
</g>
<!-- ExecrciseDescriptionComponent -->
<g id="node1" class="node">
<title>ExecrciseDescriptionComponent</title>
<polygon fill="#ffffb3" stroke="#000000" points="947.552,-122 746.448,-122 746.448,-86 947.552,-86 947.552,-122"/>
<text text-anchor="middle" x="847" y="-99.8" font-family="Times,serif" font-size="14.00" fill="#000000">ExecrciseDescriptionComponent</text>
</g>
<!-- WorkoutRunnerModule -->
<g id="node5" class="node">
<title>WorkoutRunnerModule</title>
<polygon fill="#8dd3c7" stroke="#000000" points="587.0281,-187 584.0281,-191 563.0281,-191 560.0281,-187 436.9719,-187 436.9719,-151 587.0281,-151 587.0281,-187"/>
<text text-anchor="middle" x="512" y="-164.8" font-family="Times,serif" font-size="14.00" fill="#000000">WorkoutRunnerModule</text>
</g>
<!-- ExecrciseDescriptionComponent&#45;&gt;WorkoutRunnerModule -->
<g id="edge1" class="edge">
<title>ExecrciseDescriptionComponent&#45;&gt;WorkoutRunnerModule</title>
<path fill="none" stroke="#000000" d="M847,-122.2843C847,-143.3211 847,-175 847,-175 847,-175 597.1805,-175 597.1805,-175"/>
<polygon fill="#000000" stroke="#000000" points="597.1806,-171.5001 587.1805,-175 597.1805,-178.5001 597.1806,-171.5001"/>
</g>
<!-- SecondToPipePipe -->
<g id="node2" class="node">
<title>SecondToPipePipe</title>
<polygon fill="#ffffb3" stroke="#000000" points="728.0409,-122 605.9591,-122 605.9591,-86 728.0409,-86 728.0409,-122"/>
<text text-anchor="middle" x="667" y="-99.8" font-family="Times,serif" font-size="14.00" fill="#000000">SecondToPipePipe</text>
</g>
<!-- SecondToPipePipe&#45;&gt;WorkoutRunnerModule -->
<g id="edge2" class="edge">
<title>SecondToPipePipe&#45;&gt;WorkoutRunnerModule</title>
<path fill="none" stroke="#000000" d="M667,-122.0225C667,-139.3734 667,-163 667,-163 667,-163 597.2298,-163 597.2298,-163"/>
<polygon fill="#000000" stroke="#000000" points="597.2298,-159.5001 587.2298,-163 597.2297,-166.5001 597.2298,-159.5001"/>
</g>
<!-- VideoPlayerComponent -->
<g id="node3" class="node">
<title>VideoPlayerComponent</title>
<polygon fill="#ffffb3" stroke="#000000" points="587.8075,-122 436.1925,-122 436.1925,-86 587.8075,-86 587.8075,-122"/>
<text text-anchor="middle" x="512" y="-99.8" font-family="Times,serif" font-size="14.00" fill="#000000">VideoPlayerComponent</text>
</g>
<!-- VideoPlayerComponent&#45;&gt;WorkoutRunnerModule -->
<g id="edge3" class="edge">
<title>VideoPlayerComponent&#45;&gt;WorkoutRunnerModule</title>
<path fill="none" stroke="#000000" d="M512,-122.1061C512,-122.1061 512,-140.991 512,-140.991"/>
<polygon fill="#000000" stroke="#000000" points="508.5001,-140.9909 512,-150.991 515.5001,-140.991 508.5001,-140.9909"/>
</g>
<!-- WorkoutRunnerComponent -->
<g id="node4" class="node">
<title>WorkoutRunnerComponent</title>
<polygon fill="#ffffb3" stroke="#000000" points="418.3103,-122 245.6897,-122 245.6897,-86 418.3103,-86 418.3103,-122"/>
<text text-anchor="middle" x="332" y="-99.8" font-family="Times,serif" font-size="14.00" fill="#000000">WorkoutRunnerComponent</text>
</g>
<!-- WorkoutRunnerComponent&#45;&gt;WorkoutRunnerModule -->
<g id="edge4" class="edge">
<title>WorkoutRunnerComponent&#45;&gt;WorkoutRunnerModule</title>
<path fill="none" stroke="#000000" d="M332,-122.0225C332,-139.3734 332,-163 332,-163 332,-163 426.9672,-163 426.9672,-163"/>
<polygon fill="#000000" stroke="#000000" points="426.9672,-166.5001 436.9672,-163 426.9672,-159.5001 426.9672,-166.5001"/>
</g>
<!-- WorkoutRunnerComponent  -->
<g id="node6" class="node">
<title>WorkoutRunnerComponent </title>
<polygon fill="#fb8072" stroke="#000000" points="599.8101,-252 424.1899,-252 424.1899,-216 599.8101,-216 599.8101,-252"/>
<text text-anchor="middle" x="512" y="-229.8" font-family="Times,serif" font-size="14.00" fill="#000000">WorkoutRunnerComponent </text>
</g>
<!-- WorkoutRunnerModule&#45;&gt;WorkoutRunnerComponent  -->
<g id="edge5" class="edge">
<title>WorkoutRunnerModule&#45;&gt;WorkoutRunnerComponent </title>
<path fill="none" stroke="#000000" stroke-dasharray="5,2" d="M512,-187.1061C512,-187.1061 512,-205.991 512,-205.991"/>
<polygon fill="#000000" stroke="#000000" points="508.5001,-205.9909 512,-215.991 515.5001,-205.991 508.5001,-205.9909"/>
</g>
<!-- ProductServiceService -->
<g id="node7" class="node">
<title>ProductServiceService</title>
<ellipse fill="#fdb462" stroke="#000000" cx="123" cy="-104" rx="98.9723" ry="18"/>
<text text-anchor="middle" x="123" y="-99.8" font-family="Times,serif" font-size="14.00" fill="#000000">ProductServiceService</text>
</g>
<!-- ProductServiceService&#45;&gt;WorkoutRunnerModule -->
<g id="edge6" class="edge">
<title>ProductServiceService&#45;&gt;WorkoutRunnerModule</title>
<path fill="none" stroke="#000000" d="M123,-122.2843C123,-143.3211 123,-175 123,-175 123,-175 426.5356,-175 426.5356,-175"/>
<polygon fill="#000000" stroke="#000000" points="426.5357,-178.5001 436.5356,-175 426.5356,-171.5001 426.5357,-178.5001"/>
</g>
</g>
</svg>
