<?xml version="1.0" encoding="UTF-8" standalone="no"?>
<!DOCTYPE svg PUBLIC "-//W3C//DTD SVG 1.1//EN"
 "http://www.w3.org/Graphics/SVG/1.1/DTD/svg11.dtd">
<!-- Generated by graphviz version 2.40.1 (20161225.0304)
 -->
<!-- Title: dependencies Pages: 1 -->
<svg width="828pt" height="211pt"
 viewBox="0.00 0.00 828.00 211.00" xmlns="http://www.w3.org/2000/svg" xmlns:xlink="http://www.w3.org/1999/xlink">
<g id="graph0" class="graph" transform="scale(1 1) rotate(0) translate(4 207)">
<title>dependencies</title>
<polygon fill="#ffffff" stroke="transparent" points="-4,4 -4,-207 824,-207 824,4 -4,4"/>
<text text-anchor="start" x="389.0091" y="-42.4" font-family="sans-serif" font-weight="bold" font-size="14.00" fill="#000000">Legend</text>
<polygon fill="#ffffb3" stroke="transparent" points="176,-10 176,-30 196,-30 196,-10 176,-10"/>
<text text-anchor="start" x="199.629" y="-15.4" font-family="sans-serif" font-size="14.00" fill="#000000"> &#160;Declarations</text>
<polygon fill="#8dd3c7" stroke="transparent" points="289,-10 289,-30 309,-30 309,-10 289,-10"/>
<text text-anchor="start" x="312.7251" y="-15.4" font-family="sans-serif" font-size="14.00" fill="#000000"> &#160;Module</text>
<polygon fill="#80b1d3" stroke="transparent" points="375,-10 375,-30 395,-30 395,-10 375,-10"/>
<text text-anchor="start" x="398.7812" y="-15.4" font-family="sans-serif" font-size="14.00" fill="#000000"> &#160;Bootstrap</text>
<polygon fill="#fdb462" stroke="transparent" points="472,-10 472,-30 492,-30 492,-10 472,-10"/>
<text text-anchor="start" x="495.6732" y="-15.4" font-family="sans-serif" font-size="14.00" fill="#000000"> &#160;Providers</text>
<polygon fill="#fb8072" stroke="transparent" points="568,-10 568,-30 588,-30 588,-10 568,-10"/>
<text text-anchor="start" x="591.7258" y="-15.4" font-family="sans-serif" font-size="14.00" fill="#000000"> &#160;Exports</text>
<g id="clust1" class="cluster">
<title>cluster_UserModuleModule</title>
<polygon fill="none" stroke="#000000" stroke-dasharray="1,5" points="8,-70 8,-195 812,-195 812,-70 8,-70"/>
</g>
<g id="clust2" class="cluster">
<title>cluster_UserModuleModule_declarations</title>
<polygon fill="none" stroke="#000000" points="314,-78 314,-130 804,-130 804,-78 314,-78"/>
</g>
<g id="clust6" class="cluster">
<title>cluster_UserModuleModule_imports</title>
<polygon fill="none" stroke="#000000" points="16,-78 16,-130 306,-130 306,-78 16,-78"/>
</g>
<!-- EditDialogComponent -->
<g id="node1" class="node">
<title>EditDialogComponent</title>
<polygon fill="#ffffb3" stroke="#000000" points="796.2688,-122 653.7312,-122 653.7312,-86 796.2688,-86 796.2688,-122"/>
<text text-anchor="middle" x="725" y="-99.8" font-family="Times,serif" font-size="14.00" fill="#000000">EditDialogComponent</text>
</g>
<!-- UserModuleModule -->
<g id="node4" class="node">
<title>UserModuleModule</title>
<polygon fill="#8dd3c7" stroke="#000000" points="459.5269,-187 456.5269,-191 435.5269,-191 432.5269,-187 330.4731,-187 330.4731,-151 459.5269,-151 459.5269,-187"/>
<text text-anchor="middle" x="395" y="-164.8" font-family="Times,serif" font-size="14.00" fill="#000000">UserModuleModule</text>
</g>
<!-- EditDialogComponent&#45;&gt;UserModuleModule -->
<g id="edge1" class="edge">
<title>EditDialogComponent&#45;&gt;UserModuleModule</title>
<path fill="none" stroke="#000000" d="M725,-122.2843C725,-143.3211 725,-175 725,-175 725,-175 469.8036,-175 469.8036,-175"/>
<polygon fill="#000000" stroke="#000000" points="469.8037,-171.5001 459.8036,-175 469.8036,-178.5001 469.8037,-171.5001"/>
</g>
<!-- UserFriendsComponent -->
<g id="node2" class="node">
<title>UserFriendsComponent</title>
<polygon fill="#ffffb3" stroke="#000000" points="635.752,-122 486.248,-122 486.248,-86 635.752,-86 635.752,-122"/>
<text text-anchor="middle" x="561" y="-99.8" font-family="Times,serif" font-size="14.00" fill="#000000">UserFriendsComponent</text>
</g>
<!-- UserFriendsComponent&#45;&gt;UserModuleModule -->
<g id="edge2" class="edge">
<title>UserFriendsComponent&#45;&gt;UserModuleModule</title>
<path fill="none" stroke="#000000" d="M561,-122.0225C561,-139.3734 561,-163 561,-163 561,-163 469.6553,-163 469.6553,-163"/>
<polygon fill="#000000" stroke="#000000" points="469.6553,-159.5001 459.6553,-163 469.6552,-166.5001 469.6553,-159.5001"/>
</g>
<!-- UserProfileComponent -->
<g id="node3" class="node">
<title>UserProfileComponent</title>
<polygon fill="#ffffb3" stroke="#000000" points="467.8585,-122 322.1415,-122 322.1415,-86 467.8585,-86 467.8585,-122"/>
<text text-anchor="middle" x="395" y="-99.8" font-family="Times,serif" font-size="14.00" fill="#000000">UserProfileComponent</text>
</g>
<!-- UserProfileComponent&#45;&gt;UserModuleModule -->
<g id="edge3" class="edge">
<title>UserProfileComponent&#45;&gt;UserModuleModule</title>
<path fill="none" stroke="#000000" d="M395,-122.1061C395,-122.1061 395,-140.991 395,-140.991"/>
<polygon fill="#000000" stroke="#000000" points="391.5001,-140.9909 395,-150.991 398.5001,-140.991 391.5001,-140.9909"/>
</g>
<!-- UserRoutingModule -->
<g id="node5" class="node">
<title>UserRoutingModule</title>
<polygon fill="#8dd3c7" stroke="#000000" points="297.594,-122 294.594,-126 273.594,-126 270.594,-122 166.406,-122 166.406,-86 297.594,-86 297.594,-122"/>
<text text-anchor="middle" x="232" y="-99.8" font-family="Times,serif" font-size="14.00" fill="#000000">UserRoutingModule</text>
</g>
<!-- UserRoutingModule&#45;&gt;UserModuleModule -->
<g id="edge4" class="edge">
<title>UserRoutingModule&#45;&gt;UserModuleModule</title>
<path fill="none" stroke="#000000" d="M232,-122.0225C232,-139.3734 232,-163 232,-163 232,-163 320.1097,-163 320.1097,-163"/>
<polygon fill="#000000" stroke="#000000" points="320.1098,-166.5001 330.1097,-163 320.1097,-159.5001 320.1098,-166.5001"/>
</g>
<!-- UtilModuleModule -->
<g id="node6" class="node">
<title>UtilModuleModule</title>
<polygon fill="#8dd3c7" stroke="#000000" points="148.3781,-122 145.3781,-126 124.3781,-126 121.3781,-122 23.6219,-122 23.6219,-86 148.3781,-86 148.3781,-122"/>
<text text-anchor="middle" x="86" y="-99.8" font-family="Times,serif" font-size="14.00" fill="#000000">UtilModuleModule</text>
</g>
<!-- UtilModuleModule&#45;&gt;UserModuleModule -->
<g id="edge5" class="edge">
<title>UtilModuleModule&#45;&gt;UserModuleModule</title>
<path fill="none" stroke="#000000" d="M86,-122.2843C86,-143.3211 86,-175 86,-175 86,-175 320.2235,-175 320.2235,-175"/>
<polygon fill="#000000" stroke="#000000" points="320.2235,-178.5001 330.2235,-175 320.2234,-171.5001 320.2235,-178.5001"/>
</g>
</g>
</svg>
