<?xml version="1.0" encoding="UTF-8" standalone="no"?>
<!DOCTYPE svg PUBLIC "-//W3C//DTD SVG 1.1//EN"
 "http://www.w3.org/Graphics/SVG/1.1/DTD/svg11.dtd">
<!-- Generated by graphviz version 2.40.1 (20161225.0304)
 -->
<!-- Title: dependencies Pages: 1 -->
<svg width="1544pt" height="276pt"
 viewBox="0.00 0.00 1544.00 276.00" xmlns="http://www.w3.org/2000/svg" xmlns:xlink="http://www.w3.org/1999/xlink">
<g id="graph0" class="graph" transform="scale(1 1) rotate(0) translate(4 272)">
<title>dependencies</title>
<polygon fill="#ffffff" stroke="transparent" points="-4,4 -4,-272 1540,-272 1540,4 -4,4"/>
<text text-anchor="start" x="747.0091" y="-42.4" font-family="sans-serif" font-weight="bold" font-size="14.00" fill="#000000">Legend</text>
<polygon fill="#ffffb3" stroke="transparent" points="534,-10 534,-30 554,-30 554,-10 534,-10"/>
<text text-anchor="start" x="557.629" y="-15.4" font-family="sans-serif" font-size="14.00" fill="#000000"> &#160;Declarations</text>
<polygon fill="#8dd3c7" stroke="transparent" points="647,-10 647,-30 667,-30 667,-10 647,-10"/>
<text text-anchor="start" x="670.7251" y="-15.4" font-family="sans-serif" font-size="14.00" fill="#000000"> &#160;Module</text>
<polygon fill="#80b1d3" stroke="transparent" points="733,-10 733,-30 753,-30 753,-10 733,-10"/>
<text text-anchor="start" x="756.7812" y="-15.4" font-family="sans-serif" font-size="14.00" fill="#000000"> &#160;Bootstrap</text>
<polygon fill="#fdb462" stroke="transparent" points="830,-10 830,-30 850,-30 850,-10 830,-10"/>
<text text-anchor="start" x="853.6732" y="-15.4" font-family="sans-serif" font-size="14.00" fill="#000000"> &#160;Providers</text>
<polygon fill="#fb8072" stroke="transparent" points="926,-10 926,-30 946,-30 946,-10 926,-10"/>
<text text-anchor="start" x="949.7258" y="-15.4" font-family="sans-serif" font-size="14.00" fill="#000000"> &#160;Exports</text>
<g id="clust1" class="cluster">
<title>cluster_AuthenticationModule</title>
<polygon fill="none" stroke="#000000" stroke-dasharray="1,5" points="8,-70 8,-260 1528,-260 1528,-70 8,-70"/>
</g>
<g id="clust2" class="cluster">
<title>cluster_AuthenticationModule_declarations</title>
<polygon fill="none" stroke="#000000" points="960,-143 960,-195 1520,-195 1520,-143 960,-143"/>
</g>
<g id="clust4" class="cluster">
<title>cluster_AuthenticationModule_PasswordEqualValidatorDirective_providers</title>
<polygon fill="none" stroke="#000000" points="612,-78 612,-130 1520,-130 1520,-78 612,-78"/>
</g>
<g id="clust6" class="cluster">
<title>cluster_AuthenticationModule_imports</title>
<polygon fill="none" stroke="#000000" points="427,-143 427,-195 952,-195 952,-143 427,-143"/>
</g>
<g id="clust9" class="cluster">
<title>cluster_AuthenticationModule_providers</title>
<polygon fill="none" stroke="#000000" points="16,-143 16,-195 419,-195 419,-143 16,-143"/>
</g>
<!-- LoginComponent -->
<g id="node1" class="node">
<title>LoginComponent</title>
<polygon fill="#ffffb3" stroke="#000000" points="1512.2758,-187 1397.7242,-187 1397.7242,-151 1512.2758,-151 1512.2758,-187"/>
<text text-anchor="middle" x="1455" y="-164.8" font-family="Times,serif" font-size="14.00" fill="#000000">LoginComponent</text>
</g>
<!-- AuthenticationModule -->
<g id="node4" class="node">
<title>AuthenticationModule</title>
<polygon fill="#8dd3c7" stroke="#000000" points="826.2534,-252 823.2534,-256 802.2534,-256 799.2534,-252 683.7466,-252 683.7466,-216 826.2534,-216 826.2534,-252"/>
<text text-anchor="middle" x="755" y="-229.8" font-family="Times,serif" font-size="14.00" fill="#000000">AuthenticationModule</text>
</g>
<!-- LoginComponent&#45;&gt;AuthenticationModule -->
<g id="edge1" class="edge">
<title>LoginComponent&#45;&gt;AuthenticationModule</title>
<path fill="none" stroke="#000000" d="M1455,-187.2921C1455,-209.2057 1455,-243 1455,-243 1455,-243 836.297,-243 836.297,-243"/>
<polygon fill="#000000" stroke="#000000" points="836.297,-239.5001 826.297,-243 836.297,-246.5001 836.297,-239.5001"/>
</g>
<!-- PasswordEqualValidatorDirective -->
<g id="node2" class="node">
<title>PasswordEqualValidatorDirective</title>
<polygon fill="#ffffb3" stroke="#000000" points="1379.7626,-187 1172.2374,-187 1172.2374,-151 1379.7626,-151 1379.7626,-187"/>
<text text-anchor="middle" x="1276" y="-164.8" font-family="Times,serif" font-size="14.00" fill="#000000">PasswordEqualValidatorDirective</text>
</g>
<!-- PasswordEqualValidatorDirective&#45;&gt;AuthenticationModule -->
<g id="edge2" class="edge">
<title>PasswordEqualValidatorDirective&#45;&gt;AuthenticationModule</title>
<path fill="none" stroke="#000000" d="M1276,-187.1061C1276,-206.3391 1276,-234 1276,-234 1276,-234 836.3504,-234 836.3504,-234"/>
<polygon fill="#000000" stroke="#000000" points="836.3504,-230.5001 826.3504,-234 836.3504,-237.5001 836.3504,-230.5001"/>
</g>
<!-- SignupComponentComponent -->
<g id="node3" class="node">
<title>SignupComponentComponent</title>
<polygon fill="#ffffb3" stroke="#000000" points="1154.3383,-187 967.6617,-187 967.6617,-151 1154.3383,-151 1154.3383,-187"/>
<text text-anchor="middle" x="1061" y="-164.8" font-family="Times,serif" font-size="14.00" fill="#000000">SignupComponentComponent</text>
</g>
<!-- SignupComponentComponent&#45;&gt;AuthenticationModule -->
<g id="edge4" class="edge">
<title>SignupComponentComponent&#45;&gt;AuthenticationModule</title>
<path fill="none" stroke="#000000" d="M1061,-187.027C1061,-203.3976 1061,-225 1061,-225 1061,-225 836.3572,-225 836.3572,-225"/>
<polygon fill="#000000" stroke="#000000" points="836.3573,-221.5001 826.3572,-225 836.3572,-228.5001 836.3573,-221.5001"/>
</g>
<!-- { provide: NG_VALIDATORS, useExisting: forwardRef(() =&gt; PasswordEqualValidatorDirective), multi: true } -->
<g id="node5" class="node">
<title>{ provide: NG_VALIDATORS, useExisting: forwardRef(() =&gt; PasswordEqualValidatorDirective), multi: true }</title>
<ellipse fill="#fdb462" stroke="#000000" cx="1066" cy="-104" rx="445.5203" ry="18"/>
<text text-anchor="middle" x="1066" y="-99.8" font-family="Times,serif" font-size="14.00" fill="#000000">{ provide: NG_VALIDATORS, useExisting: forwardRef(() =&gt; PasswordEqualValidatorDirective), multi: true }</text>
</g>
<!-- { provide: NG_VALIDATORS, useExisting: forwardRef(() =&gt; PasswordEqualValidatorDirective), multi: true }&#45;&gt;PasswordEqualValidatorDirective -->
<g id="edge3" class="edge">
<title>{ provide: NG_VALIDATORS, useExisting: forwardRef(() =&gt; PasswordEqualValidatorDirective), multi: true }&#45;&gt;PasswordEqualValidatorDirective</title>
<path fill="none" stroke="#000000" d="M1276,-120.0674C1276,-120.0674 1276,-140.8237 1276,-140.8237"/>
<polygon fill="#000000" stroke="#000000" points="1272.5001,-140.8236 1276,-150.8237 1279.5001,-140.8237 1272.5001,-140.8236"/>
</g>
<!-- AuthenticationRoutingModule -->
<g id="node6" class="node">
<title>AuthenticationRoutingModule</title>
<polygon fill="#8dd3c7" stroke="#000000" points="943.871,-187 940.871,-191 919.871,-191 916.871,-187 756.129,-187 756.129,-151 943.871,-151 943.871,-187"/>
<text text-anchor="middle" x="850" y="-164.8" font-family="Times,serif" font-size="14.00" fill="#000000">AuthenticationRoutingModule</text>
</g>
<!-- AuthenticationRoutingModule&#45;&gt;AuthenticationModule -->
<g id="edge5" class="edge">
<title>AuthenticationRoutingModule&#45;&gt;AuthenticationModule</title>
<path fill="none" stroke="#000000" d="M791.2206,-187.1061C791.2206,-187.1061 791.2206,-205.991 791.2206,-205.991"/>
<polygon fill="#000000" stroke="#000000" points="787.7206,-205.9909 791.2206,-215.991 794.7206,-205.991 787.7206,-205.9909"/>
</g>
<!-- CommonModuleModule -->
<g id="node7" class="node">
<title>CommonModuleModule</title>
<polygon fill="#8dd3c7" stroke="#000000" points="737.7176,-187 734.7176,-191 713.7176,-191 710.7176,-187 582.2824,-187 582.2824,-151 737.7176,-151 737.7176,-187"/>
<text text-anchor="middle" x="660" y="-164.8" font-family="Times,serif" font-size="14.00" fill="#000000">CommonModuleModule</text>
</g>
<!-- CommonModuleModule&#45;&gt;AuthenticationModule -->
<g id="edge6" class="edge">
<title>CommonModuleModule&#45;&gt;AuthenticationModule</title>
<path fill="none" stroke="#000000" d="M710.6161,-187.1061C710.6161,-187.1061 710.6161,-205.991 710.6161,-205.991"/>
<polygon fill="#000000" stroke="#000000" points="707.1161,-205.9909 710.6161,-215.991 714.1161,-205.991 707.1161,-205.9909"/>
</g>
<!-- UserModuleModule -->
<g id="node8" class="node">
<title>UserModuleModule</title>
<polygon fill="#8dd3c7" stroke="#000000" points="564.5269,-187 561.5269,-191 540.5269,-191 537.5269,-187 435.4731,-187 435.4731,-151 564.5269,-151 564.5269,-187"/>
<text text-anchor="middle" x="500" y="-164.8" font-family="Times,serif" font-size="14.00" fill="#000000">UserModuleModule</text>
</g>
<!-- UserModuleModule&#45;&gt;AuthenticationModule -->
<g id="edge7" class="edge">
<title>UserModuleModule&#45;&gt;AuthenticationModule</title>
<path fill="none" stroke="#000000" d="M500,-187.027C500,-203.3976 500,-225 500,-225 500,-225 673.6292,-225 673.6292,-225"/>
<polygon fill="#000000" stroke="#000000" points="673.6292,-228.5001 683.6292,-225 673.6292,-221.5001 673.6292,-228.5001"/>
</g>
<!-- AuthenticationServiceService -->
<g id="node9" class="node">
<title>AuthenticationServiceService</title>
<ellipse fill="#fdb462" stroke="#000000" cx="285" cy="-169" rx="126.1791" ry="18"/>
<text text-anchor="middle" x="285" y="-164.8" font-family="Times,serif" font-size="14.00" fill="#000000">AuthenticationServiceService</text>
</g>
<!-- AuthenticationServiceService&#45;&gt;AuthenticationModule -->
<g id="edge8" class="edge">
<title>AuthenticationServiceService&#45;&gt;AuthenticationModule</title>
<path fill="none" stroke="#000000" d="M285,-187.1061C285,-206.3391 285,-234 285,-234 285,-234 673.6171,-234 673.6171,-234"/>
<polygon fill="#000000" stroke="#000000" points="673.6172,-237.5001 683.6171,-234 673.6171,-230.5001 673.6172,-237.5001"/>
</g>
<!-- UserService -->
<g id="node10" class="node">
<title>UserService</title>
<ellipse fill="#fdb462" stroke="#000000" cx="82" cy="-169" rx="58.4415" ry="18"/>
<text text-anchor="middle" x="82" y="-164.8" font-family="Times,serif" font-size="14.00" fill="#000000">UserService</text>
</g>
<!-- UserService&#45;&gt;AuthenticationModule -->
<g id="edge9" class="edge">
<title>UserService&#45;&gt;AuthenticationModule</title>
<path fill="none" stroke="#000000" d="M82,-187.2921C82,-209.2057 82,-243 82,-243 82,-243 673.6144,-243 673.6144,-243"/>
<polygon fill="#000000" stroke="#000000" points="673.6144,-246.5001 683.6144,-243 673.6143,-239.5001 673.6144,-246.5001"/>
</g>
</g>
</svg>
