<?xml version="1.0" encoding="UTF-8" standalone="no"?>
<!DOCTYPE svg PUBLIC "-//W3C//DTD SVG 1.1//EN"
 "http://www.w3.org/Graphics/SVG/1.1/DTD/svg11.dtd">
<!-- Generated by graphviz version 2.40.1 (20161225.0304)
 -->
<!-- Title: dependencies Pages: 1 -->
<svg width="1180pt" height="360pt"
 viewBox="0.00 0.00 1180.00 360.00" xmlns="http://www.w3.org/2000/svg" xmlns:xlink="http://www.w3.org/1999/xlink">
<g id="graph0" class="graph" transform="scale(1 1) rotate(0) translate(4 356)">
<title>dependencies</title>
<polygon fill="#ffffff" stroke="transparent" points="-4,4 -4,-356 1176,-356 1176,4 -4,4"/>
<text text-anchor="start" x="565.0091" y="-42.4" font-family="sans-serif" font-weight="bold" font-size="14.00" fill="#000000">Legend</text>
<polygon fill="#ffffb3" stroke="transparent" points="352,-10 352,-30 372,-30 372,-10 352,-10"/>
<text text-anchor="start" x="375.629" y="-15.4" font-family="sans-serif" font-size="14.00" fill="#000000"> &#160;Declarations</text>
<polygon fill="#8dd3c7" stroke="transparent" points="465,-10 465,-30 485,-30 485,-10 465,-10"/>
<text text-anchor="start" x="488.7251" y="-15.4" font-family="sans-serif" font-size="14.00" fill="#000000"> &#160;Module</text>
<polygon fill="#80b1d3" stroke="transparent" points="551,-10 551,-30 571,-30 571,-10 551,-10"/>
<text text-anchor="start" x="574.7812" y="-15.4" font-family="sans-serif" font-size="14.00" fill="#000000"> &#160;Bootstrap</text>
<polygon fill="#fdb462" stroke="transparent" points="648,-10 648,-30 668,-30 668,-10 648,-10"/>
<text text-anchor="start" x="671.6732" y="-15.4" font-family="sans-serif" font-size="14.00" fill="#000000"> &#160;Providers</text>
<polygon fill="#fb8072" stroke="transparent" points="744,-10 744,-30 764,-30 764,-10 744,-10"/>
<text text-anchor="start" x="767.7258" y="-15.4" font-family="sans-serif" font-size="14.00" fill="#000000"> &#160;Exports</text>
<g id="clust1" class="cluster">
<title>cluster_AppModule</title>
<polygon fill="none" stroke="#000000" stroke-dasharray="1,5" points="531,-146 531,-344 843,-344 843,-146 531,-146"/>
</g>
<g id="clust2" class="cluster">
<title>cluster_AppModule_declarations</title>
<polygon fill="none" stroke="#000000" points="713,-154 713,-206 835,-206 835,-154 713,-154"/>
</g>
<g id="clust4" class="cluster">
<title>cluster_AppModule_imports</title>
<polygon fill="none" stroke="#000000" points="539,-154 539,-206 705,-206 705,-154 539,-154"/>
</g>
<g id="clust6" class="cluster">
<title>cluster_AppModule_bootstrap</title>
<polygon fill="none" stroke="#000000" points="635,-284 635,-336 759,-336 759,-284 635,-284"/>
</g>
<g id="clust8" class="cluster">
<title>cluster_WorkoutRunnerModule</title>
<polygon fill="none" stroke="#000000" stroke-dasharray="1,5" points="8,-70 8,-138 1164,-138 1164,-70 8,-70"/>
</g>
<g id="clust9" class="cluster">
<title>cluster_WorkoutRunnerModule_declarations</title>
<polygon fill="none" stroke="#000000" points="438,-78 438,-130 1156,-130 1156,-78 438,-78"/>
</g>
<g id="clust15" class="cluster">
<title>cluster_WorkoutRunnerModule_exports</title>
<polygon fill="none" stroke="#000000" points="238,-78 238,-130 430,-130 430,-78 238,-78"/>
</g>
<g id="clust17" class="cluster">
<title>cluster_WorkoutRunnerModule_providers</title>
<polygon fill="none" stroke="#000000" points="16,-78 16,-130 230,-130 230,-78 16,-78"/>
</g>
<!-- AppComponent -->
<g id="node1" class="node">
<title>AppComponent</title>
<polygon fill="#ffffb3" stroke="#000000" points="826.9399,-198 721.0601,-198 721.0601,-162 826.9399,-162 826.9399,-198"/>
<text text-anchor="middle" x="774" y="-175.8" font-family="Times,serif" font-size="14.00" fill="#000000">AppComponent</text>
</g>
<!-- AppModule -->
<g id="node2" class="node">
<title>AppModule</title>
<polygon fill="#8dd3c7" stroke="#000000" points="738.6571,-263 735.6571,-267 714.6571,-267 711.6571,-263 655.3429,-263 655.3429,-227 738.6571,-227 738.6571,-263"/>
<text text-anchor="middle" x="697" y="-240.8" font-family="Times,serif" font-size="14.00" fill="#000000">AppModule</text>
</g>
<!-- AppComponent&#45;&gt;AppModule -->
<g id="edge1" class="edge">
<title>AppComponent&#45;&gt;AppModule</title>
<path fill="none" stroke="#000000" d="M730.0544,-198.1061C730.0544,-198.1061 730.0544,-216.991 730.0544,-216.991"/>
<polygon fill="#000000" stroke="#000000" points="726.5544,-216.9909 730.0544,-226.991 733.5544,-216.991 726.5544,-216.9909"/>
</g>
<!-- AppComponent  -->
<g id="node4" class="node">
<title>AppComponent </title>
<polygon fill="#80b1d3" stroke="#000000" points="751.439,-328 642.561,-328 642.561,-292 751.439,-292 751.439,-328"/>
<text text-anchor="middle" x="697" y="-305.8" font-family="Times,serif" font-size="14.00" fill="#000000">AppComponent </text>
</g>
<!-- AppModule&#45;&gt;AppComponent  -->
<g id="edge3" class="edge">
<title>AppModule&#45;&gt;AppComponent </title>
<path fill="none" stroke="#000000" stroke-dasharray="1,5" d="M697,-263.1061C697,-263.1061 697,-281.991 697,-281.991"/>
<polygon fill="#000000" stroke="#000000" points="693.5001,-281.9909 697,-291.991 700.5001,-281.991 693.5001,-281.9909"/>
</g>
<!-- WorkoutRunnerModule -->
<g id="node3" class="node">
<title>WorkoutRunnerModule</title>
<polygon fill="#8dd3c7" stroke="#000000" points="697.0281,-198 694.0281,-202 673.0281,-202 670.0281,-198 546.9719,-198 546.9719,-162 697.0281,-162 697.0281,-198"/>
<text text-anchor="middle" x="622" y="-175.8" font-family="Times,serif" font-size="14.00" fill="#000000">WorkoutRunnerModule</text>
</g>
<!-- WorkoutRunnerModule&#45;&gt;AppModule -->
<g id="edge2" class="edge">
<title>WorkoutRunnerModule&#45;&gt;AppModule</title>
<path fill="none" stroke="#000000" d="M676.2178,-198.1061C676.2178,-198.1061 676.2178,-216.991 676.2178,-216.991"/>
<polygon fill="#000000" stroke="#000000" points="672.7178,-216.9909 676.2178,-226.991 679.7178,-216.991 672.7178,-216.9909"/>
</g>
<!-- WorkoutRunnerComponent  -->
<g id="node9" class="node">
<title>WorkoutRunnerComponent </title>
<polygon fill="#fb8072" stroke="#000000" points="421.8101,-122 246.1899,-122 246.1899,-86 421.8101,-86 421.8101,-122"/>
<text text-anchor="middle" x="334" y="-99.8" font-family="Times,serif" font-size="14.00" fill="#000000">WorkoutRunnerComponent </text>
</g>
<!-- WorkoutRunnerModule&#45;&gt;WorkoutRunnerComponent  -->
<g id="edge8" class="edge">
<title>WorkoutRunnerModule&#45;&gt;WorkoutRunnerComponent </title>
<path fill="none" stroke="#000000" stroke-dasharray="5,2" d="M546.7076,-174C461.3758,-174 334,-174 334,-174 334,-174 334,-132.0267 334,-132.0267"/>
<polygon fill="#000000" stroke="#000000" points="337.5001,-132.0267 334,-122.0267 330.5001,-132.0268 337.5001,-132.0267"/>
</g>
<!-- ExecrciseDescriptionComponent -->
<g id="node5" class="node">
<title>ExecrciseDescriptionComponent</title>
<polygon fill="#ffffb3" stroke="#000000" points="1147.552,-122 946.448,-122 946.448,-86 1147.552,-86 1147.552,-122"/>
<text text-anchor="middle" x="1047" y="-99.8" font-family="Times,serif" font-size="14.00" fill="#000000">ExecrciseDescriptionComponent</text>
</g>
<!-- ExecrciseDescriptionComponent&#45;&gt;WorkoutRunnerModule -->
<g id="edge4" class="edge">
<title>ExecrciseDescriptionComponent&#45;&gt;WorkoutRunnerModule</title>
<path fill="none" stroke="#000000" d="M1047,-122.0439C1047,-134.5633 1047,-149 1047,-149 1047,-149 682.0344,-149 682.0344,-149 682.0344,-149 682.0344,-151.9672 682.0344,-151.9672"/>
<polygon fill="#000000" stroke="#000000" points="678.5345,-151.9671 682.0344,-161.9672 685.5345,-151.9672 678.5345,-151.9671"/>
</g>
<!-- SecondToPipePipe -->
<g id="node6" class="node">
<title>SecondToPipePipe</title>
<polygon fill="#ffffb3" stroke="#000000" points="928.0409,-122 805.9591,-122 805.9591,-86 928.0409,-86 928.0409,-122"/>
<text text-anchor="middle" x="867" y="-99.8" font-family="Times,serif" font-size="14.00" fill="#000000">SecondToPipePipe</text>
</g>
<!-- SecondToPipePipe&#45;&gt;WorkoutRunnerModule -->
<g id="edge5" class="edge">
<title>SecondToPipePipe&#45;&gt;WorkoutRunnerModule</title>
<path fill="none" stroke="#000000" d="M816.2248,-122.2434C816.2248,-129.4297 816.2248,-136 816.2248,-136 816.2248,-136 666.805,-136 666.805,-136 666.805,-136 666.805,-151.8495 666.805,-151.8495"/>
<polygon fill="#000000" stroke="#000000" points="663.3051,-151.8494 666.805,-161.8495 670.3051,-151.8495 663.3051,-151.8494"/>
</g>
<!-- VideoPlayerComponent -->
<g id="node7" class="node">
<title>VideoPlayerComponent</title>
<polygon fill="#ffffb3" stroke="#000000" points="787.8075,-122 636.1925,-122 636.1925,-86 787.8075,-86 787.8075,-122"/>
<text text-anchor="middle" x="712" y="-99.8" font-family="Times,serif" font-size="14.00" fill="#000000">VideoPlayerComponent</text>
</g>
<!-- VideoPlayerComponent&#45;&gt;WorkoutRunnerModule -->
<g id="edge6" class="edge">
<title>VideoPlayerComponent&#45;&gt;WorkoutRunnerModule</title>
<path fill="none" stroke="#000000" d="M651.5757,-122.0109C651.5757,-122.0109 651.5757,-151.855 651.5757,-151.855"/>
<polygon fill="#000000" stroke="#000000" points="648.0758,-151.8549 651.5757,-161.855 655.0758,-151.855 648.0758,-151.8549"/>
</g>
<!-- WorkoutRunnerComponent -->
<g id="node8" class="node">
<title>WorkoutRunnerComponent</title>
<polygon fill="#ffffb3" stroke="#000000" points="618.3103,-122 445.6897,-122 445.6897,-86 618.3103,-86 618.3103,-122"/>
<text text-anchor="middle" x="532" y="-99.8" font-family="Times,serif" font-size="14.00" fill="#000000">WorkoutRunnerComponent</text>
</g>
<!-- WorkoutRunnerComponent&#45;&gt;WorkoutRunnerModule -->
<g id="edge7" class="edge">
<title>WorkoutRunnerComponent&#45;&gt;WorkoutRunnerModule</title>
<path fill="none" stroke="#000000" d="M582.4457,-122.0109C582.4457,-122.0109 582.4457,-151.855 582.4457,-151.855"/>
<polygon fill="#000000" stroke="#000000" points="578.9457,-151.8549 582.4457,-161.855 585.9457,-151.855 578.9457,-151.8549"/>
</g>
<!-- ProductServiceService -->
<g id="node10" class="node">
<title>ProductServiceService</title>
<ellipse fill="#fdb462" stroke="#000000" cx="123" cy="-104" rx="98.9723" ry="18"/>
<text text-anchor="middle" x="123" y="-99.8" font-family="Times,serif" font-size="14.00" fill="#000000">ProductServiceService</text>
</g>
<!-- ProductServiceService&#45;&gt;WorkoutRunnerModule -->
<g id="edge9" class="edge">
<title>ProductServiceService&#45;&gt;WorkoutRunnerModule</title>
<path fill="none" stroke="#000000" d="M123,-122.1985C123,-146.3563 123,-186 123,-186 123,-186 536.7544,-186 536.7544,-186"/>
<polygon fill="#000000" stroke="#000000" points="536.7544,-189.5001 546.7544,-186 536.7543,-182.5001 536.7544,-189.5001"/>
</g>
</g>
</svg>
