<?xml version="1.0" encoding="UTF-8" standalone="no"?>
<!DOCTYPE svg PUBLIC "-//W3C//DTD SVG 1.1//EN"
 "http://www.w3.org/Graphics/SVG/1.1/DTD/svg11.dtd">
<!-- Generated by graphviz version 2.40.1 (20161225.0304)
 -->
<!-- Title: dependencies Pages: 1 -->
<svg width="748pt" height="290pt"
 viewBox="0.00 0.00 748.00 290.00" xmlns="http://www.w3.org/2000/svg" xmlns:xlink="http://www.w3.org/1999/xlink">
<g id="graph0" class="graph" transform="scale(1 1) rotate(0) translate(4 286)">
<title>dependencies</title>
<polygon fill="#ffffff" stroke="transparent" points="-4,4 -4,-286 744,-286 744,4 -4,4"/>
<text text-anchor="start" x="349.0091" y="-42.4" font-family="sans-serif" font-weight="bold" font-size="14.00" fill="#000000">Legend</text>
<polygon fill="#ffffb3" stroke="transparent" points="136,-10 136,-30 156,-30 156,-10 136,-10"/>
<text text-anchor="start" x="159.629" y="-15.4" font-family="sans-serif" font-size="14.00" fill="#000000"> &#160;Declarations</text>
<polygon fill="#8dd3c7" stroke="transparent" points="249,-10 249,-30 269,-30 269,-10 249,-10"/>
<text text-anchor="start" x="272.7251" y="-15.4" font-family="sans-serif" font-size="14.00" fill="#000000"> &#160;Module</text>
<polygon fill="#80b1d3" stroke="transparent" points="335,-10 335,-30 355,-30 355,-10 335,-10"/>
<text text-anchor="start" x="358.7812" y="-15.4" font-family="sans-serif" font-size="14.00" fill="#000000"> &#160;Bootstrap</text>
<polygon fill="#fdb462" stroke="transparent" points="432,-10 432,-30 452,-30 452,-10 432,-10"/>
<text text-anchor="start" x="455.6732" y="-15.4" font-family="sans-serif" font-size="14.00" fill="#000000"> &#160;Providers</text>
<polygon fill="#fb8072" stroke="transparent" points="528,-10 528,-30 548,-30 548,-10 528,-10"/>
<text text-anchor="start" x="551.7258" y="-15.4" font-family="sans-serif" font-size="14.00" fill="#000000"> &#160;Exports</text>
<g id="clust1" class="cluster">
<title>cluster_AppModule</title>
<polygon fill="none" stroke="#000000" stroke-dasharray="1,5" points="8,-70 8,-274 320,-274 320,-70 8,-70"/>
</g>
<g id="clust2" class="cluster">
<title>cluster_AppModule_declarations</title>
<polygon fill="none" stroke="#000000" points="16,-78 16,-130 138,-130 138,-78 16,-78"/>
</g>
<g id="clust4" class="cluster">
<title>cluster_AppModule_imports</title>
<polygon fill="none" stroke="#000000" points="146,-78 146,-130 312,-130 312,-78 146,-78"/>
</g>
<g id="clust6" class="cluster">
<title>cluster_AppModule_bootstrap</title>
<polygon fill="none" stroke="#000000" points="91,-214 91,-266 215,-266 215,-214 91,-214"/>
</g>
<g id="clust8" class="cluster">
<title>cluster_WorkoutRunnerModule</title>
<polygon fill="none" stroke="#000000" stroke-dasharray="1,5" points="328,-138 328,-206 732,-206 732,-138 328,-138"/>
</g>
<g id="clust9" class="cluster">
<title>cluster_WorkoutRunnerModule_declarations</title>
<polygon fill="none" stroke="#000000" points="536,-146 536,-198 724,-198 724,-146 536,-146"/>
</g>
<g id="clust12" class="cluster">
<title>cluster_WorkoutRunnerModule_exports</title>
<polygon fill="none" stroke="#000000" points="336,-146 336,-198 528,-198 528,-146 336,-146"/>
</g>
<!-- AppComponent -->
<g id="node1" class="node">
<title>AppComponent</title>
<polygon fill="#ffffb3" stroke="#000000" points="129.9399,-122 24.0601,-122 24.0601,-86 129.9399,-86 129.9399,-122"/>
<text text-anchor="middle" x="77" y="-99.8" font-family="Times,serif" font-size="14.00" fill="#000000">AppComponent</text>
</g>
<!-- AppModule -->
<g id="node2" class="node">
<title>AppModule</title>
<polygon fill="#8dd3c7" stroke="#000000" points="194.6571,-190 191.6571,-194 170.6571,-194 167.6571,-190 111.3429,-190 111.3429,-154 194.6571,-154 194.6571,-190"/>
<text text-anchor="middle" x="153" y="-167.8" font-family="Times,serif" font-size="14.00" fill="#000000">AppModule</text>
</g>
<!-- AppComponent&#45;&gt;AppModule -->
<g id="edge1" class="edge">
<title>AppComponent&#45;&gt;AppModule</title>
<path fill="none" stroke="#000000" d="M120.4457,-122.2228C120.4457,-122.2228 120.4457,-143.7269 120.4457,-143.7269"/>
<polygon fill="#000000" stroke="#000000" points="116.9457,-143.7269 120.4457,-153.7269 123.9457,-143.727 116.9457,-143.7269"/>
</g>
<!-- AppComponent  -->
<g id="node4" class="node">
<title>AppComponent </title>
<polygon fill="#80b1d3" stroke="#000000" points="207.439,-258 98.561,-258 98.561,-222 207.439,-222 207.439,-258"/>
<text text-anchor="middle" x="153" y="-235.8" font-family="Times,serif" font-size="14.00" fill="#000000">AppComponent </text>
</g>
<!-- AppModule&#45;&gt;AppComponent  -->
<g id="edge3" class="edge">
<title>AppModule&#45;&gt;AppComponent </title>
<path fill="none" stroke="#000000" stroke-dasharray="1,5" d="M153,-190.2228C153,-190.2228 153,-211.7269 153,-211.7269"/>
<polygon fill="#000000" stroke="#000000" points="149.5001,-211.7269 153,-221.7269 156.5001,-211.727 149.5001,-211.7269"/>
</g>
<!-- WorkoutRunnerModule -->
<g id="node3" class="node">
<title>WorkoutRunnerModule</title>
<polygon fill="#8dd3c7" stroke="#000000" points="304.0281,-122 301.0281,-126 280.0281,-126 277.0281,-122 153.9719,-122 153.9719,-86 304.0281,-86 304.0281,-122"/>
<text text-anchor="middle" x="229" y="-99.8" font-family="Times,serif" font-size="14.00" fill="#000000">WorkoutRunnerModule</text>
</g>
<!-- WorkoutRunnerModule&#45;&gt;AppModule -->
<g id="edge2" class="edge">
<title>WorkoutRunnerModule&#45;&gt;AppModule</title>
<path fill="none" stroke="#000000" d="M174.2822,-122.2228C174.2822,-122.2228 174.2822,-143.7269 174.2822,-143.7269"/>
<polygon fill="#000000" stroke="#000000" points="170.7823,-143.7269 174.2822,-153.7269 177.7823,-143.727 170.7823,-143.7269"/>
</g>
<!-- WorkoutRunnerComponent  -->
<g id="node6" class="node">
<title>WorkoutRunnerComponent </title>
<polygon fill="#fb8072" stroke="#000000" points="519.8101,-190 344.1899,-190 344.1899,-154 519.8101,-154 519.8101,-190"/>
<text text-anchor="middle" x="432" y="-167.8" font-family="Times,serif" font-size="14.00" fill="#000000">WorkoutRunnerComponent </text>
</g>
<!-- WorkoutRunnerModule&#45;&gt;WorkoutRunnerComponent  -->
<g id="edge5" class="edge">
<title>WorkoutRunnerModule&#45;&gt;WorkoutRunnerComponent </title>
<path fill="none" stroke="#000000" stroke-dasharray="5,2" d="M255.8666,-122.2228C255.8666,-142.3652 255.8666,-172 255.8666,-172 255.8666,-172 333.9333,-172 333.9333,-172"/>
<polygon fill="#000000" stroke="#000000" points="333.9333,-175.5001 343.9333,-172 333.9333,-168.5001 333.9333,-175.5001"/>
</g>
<!-- WorkoutRunnerComponent -->
<g id="node5" class="node">
<title>WorkoutRunnerComponent</title>
<polygon fill="#ffffb3" stroke="#000000" points="716.3103,-190 543.6897,-190 543.6897,-154 716.3103,-154 716.3103,-190"/>
<text text-anchor="middle" x="630" y="-167.8" font-family="Times,serif" font-size="14.00" fill="#000000">WorkoutRunnerComponent</text>
</g>
<!-- WorkoutRunnerComponent&#45;&gt;WorkoutRunnerModule -->
<g id="edge4" class="edge">
<title>WorkoutRunnerComponent&#45;&gt;WorkoutRunnerModule</title>
<path fill="none" stroke="#000000" d="M630,-153.7772C630,-133.6348 630,-104 630,-104 630,-104 314.425,-104 314.425,-104"/>
<polygon fill="#000000" stroke="#000000" points="314.4251,-100.5001 304.425,-104 314.425,-107.5001 314.4251,-100.5001"/>
</g>
</g>
</svg>
