<?xml version="1.0" encoding="UTF-8" standalone="no"?>
<!DOCTYPE svg PUBLIC "-//W3C//DTD SVG 1.1//EN"
 "http://www.w3.org/Graphics/SVG/1.1/DTD/svg11.dtd">
<!-- Generated by graphviz version 2.40.1 (20161225.0304)
 -->
<!-- Title: dependencies Pages: 1 -->
<svg width="580pt" height="284pt"
 viewBox="0.00 0.00 580.00 284.00" xmlns="http://www.w3.org/2000/svg" xmlns:xlink="http://www.w3.org/1999/xlink">
<g id="graph0" class="graph" transform="scale(1 1) rotate(0) translate(4 280)">
<title>dependencies</title>
<polygon fill="#ffffff" stroke="transparent" points="-4,4 -4,-280 576,-280 576,4 -4,4"/>
<text text-anchor="start" x="265.0091" y="-42.4" font-family="sans-serif" font-weight="bold" font-size="14.00" fill="#000000">Legend</text>
<polygon fill="#ffffb3" stroke="transparent" points="52,-10 52,-30 72,-30 72,-10 52,-10"/>
<text text-anchor="start" x="75.629" y="-15.4" font-family="sans-serif" font-size="14.00" fill="#000000"> &#160;Declarations</text>
<polygon fill="#8dd3c7" stroke="transparent" points="165,-10 165,-30 185,-30 185,-10 165,-10"/>
<text text-anchor="start" x="188.7251" y="-15.4" font-family="sans-serif" font-size="14.00" fill="#000000"> &#160;Module</text>
<polygon fill="#80b1d3" stroke="transparent" points="251,-10 251,-30 271,-30 271,-10 251,-10"/>
<text text-anchor="start" x="274.7812" y="-15.4" font-family="sans-serif" font-size="14.00" fill="#000000"> &#160;Bootstrap</text>
<polygon fill="#fdb462" stroke="transparent" points="348,-10 348,-30 368,-30 368,-10 348,-10"/>
<text text-anchor="start" x="371.6732" y="-15.4" font-family="sans-serif" font-size="14.00" fill="#000000"> &#160;Providers</text>
<polygon fill="#fb8072" stroke="transparent" points="444,-10 444,-30 464,-30 464,-10 444,-10"/>
<text text-anchor="start" x="467.7258" y="-15.4" font-family="sans-serif" font-size="14.00" fill="#000000"> &#160;Exports</text>
<g id="clust1" class="cluster">
<title>cluster_AppModule</title>
<polygon fill="none" stroke="#000000" stroke-dasharray="1,5" points="8,-70 8,-268 564,-268 564,-70 8,-70"/>
</g>
<g id="clust2" class="cluster">
<title>cluster_AppModule_declarations</title>
<polygon fill="none" stroke="#000000" points="434,-78 434,-130 556,-130 556,-78 434,-78"/>
</g>
<g id="clust4" class="cluster">
<title>cluster_AppModule_imports</title>
<polygon fill="none" stroke="#000000" points="16,-78 16,-130 426,-130 426,-78 16,-78"/>
</g>
<g id="clust6" class="cluster">
<title>cluster_AppModule_bootstrap</title>
<polygon fill="none" stroke="#000000" points="247,-208 247,-260 371,-260 371,-208 247,-208"/>
</g>
<!-- AppComponent -->
<g id="node1" class="node">
<title>AppComponent</title>
<polygon fill="#ffffb3" stroke="#000000" points="547.9399,-122 442.0601,-122 442.0601,-86 547.9399,-86 547.9399,-122"/>
<text text-anchor="middle" x="495" y="-99.8" font-family="Times,serif" font-size="14.00" fill="#000000">AppComponent</text>
</g>
<!-- AppModule -->
<g id="node2" class="node">
<title>AppModule</title>
<polygon fill="#8dd3c7" stroke="#000000" points="350.6571,-187 347.6571,-191 326.6571,-191 323.6571,-187 267.3429,-187 267.3429,-151 350.6571,-151 350.6571,-187"/>
<text text-anchor="middle" x="309" y="-164.8" font-family="Times,serif" font-size="14.00" fill="#000000">AppModule</text>
</g>
<!-- AppComponent&#45;&gt;AppModule -->
<g id="edge1" class="edge">
<title>AppComponent&#45;&gt;AppModule</title>
<path fill="none" stroke="#000000" d="M495,-122.1061C495,-141.3391 495,-169 495,-169 495,-169 360.742,-169 360.742,-169"/>
<polygon fill="#000000" stroke="#000000" points="360.7421,-165.5001 350.742,-169 360.742,-172.5001 360.7421,-165.5001"/>
</g>
<!-- AppComponent  -->
<g id="node6" class="node">
<title>AppComponent </title>
<polygon fill="#80b1d3" stroke="#000000" points="363.439,-252 254.561,-252 254.561,-216 363.439,-216 363.439,-252"/>
<text text-anchor="middle" x="309" y="-229.8" font-family="Times,serif" font-size="14.00" fill="#000000">AppComponent </text>
</g>
<!-- AppModule&#45;&gt;AppComponent  -->
<g id="edge5" class="edge">
<title>AppModule&#45;&gt;AppComponent </title>
<path fill="none" stroke="#000000" stroke-dasharray="1,5" d="M309,-187.1061C309,-187.1061 309,-205.991 309,-205.991"/>
<polygon fill="#000000" stroke="#000000" points="305.5001,-205.9909 309,-215.991 312.5001,-205.991 305.5001,-205.9909"/>
</g>
<!-- AppRouting -->
<g id="node3" class="node">
<title>AppRouting</title>
<polygon fill="#8dd3c7" stroke="#000000" points="417.7247,-122 414.7247,-126 393.7247,-126 390.7247,-122 332.2753,-122 332.2753,-86 417.7247,-86 417.7247,-122"/>
<text text-anchor="middle" x="375" y="-99.8" font-family="Times,serif" font-size="14.00" fill="#000000">AppRouting</text>
</g>
<!-- AppRouting&#45;&gt;AppModule -->
<g id="edge2" class="edge">
<title>AppRouting&#45;&gt;AppModule</title>
<path fill="none" stroke="#000000" d="M341.608,-122.1061C341.608,-122.1061 341.608,-140.991 341.608,-140.991"/>
<polygon fill="#000000" stroke="#000000" points="338.1081,-140.9909 341.608,-150.991 345.1081,-140.991 338.1081,-140.9909"/>
</g>
<!-- AuthenticationModule -->
<g id="node4" class="node">
<title>AuthenticationModule</title>
<polygon fill="#8dd3c7" stroke="#000000" points="314.2534,-122 311.2534,-126 290.2534,-126 287.2534,-122 171.7466,-122 171.7466,-86 314.2534,-86 314.2534,-122"/>
<text text-anchor="middle" x="243" y="-99.8" font-family="Times,serif" font-size="14.00" fill="#000000">AuthenticationModule</text>
</g>
<!-- AuthenticationModule&#45;&gt;AppModule -->
<g id="edge3" class="edge">
<title>AuthenticationModule&#45;&gt;AppModule</title>
<path fill="none" stroke="#000000" d="M290.7742,-122.1061C290.7742,-122.1061 290.7742,-140.991 290.7742,-140.991"/>
<polygon fill="#000000" stroke="#000000" points="287.2743,-140.9909 290.7742,-150.991 294.2743,-140.991 287.2743,-140.9909"/>
</g>
<!-- UserModuleModule -->
<g id="node5" class="node">
<title>UserModuleModule</title>
<polygon fill="#8dd3c7" stroke="#000000" points="153.5269,-122 150.5269,-126 129.5269,-126 126.5269,-122 24.4731,-122 24.4731,-86 153.5269,-86 153.5269,-122"/>
<text text-anchor="middle" x="89" y="-99.8" font-family="Times,serif" font-size="14.00" fill="#000000">UserModuleModule</text>
</g>
<!-- UserModuleModule&#45;&gt;AppModule -->
<g id="edge4" class="edge">
<title>UserModuleModule&#45;&gt;AppModule</title>
<path fill="none" stroke="#000000" d="M89,-122.1061C89,-141.3391 89,-169 89,-169 89,-169 257.1018,-169 257.1018,-169"/>
<polygon fill="#000000" stroke="#000000" points="257.1019,-172.5001 267.1018,-169 257.1018,-165.5001 257.1019,-172.5001"/>
</g>
</g>
</svg>
