<?xml version="1.0" encoding="UTF-8" standalone="no"?>
<!DOCTYPE svg PUBLIC "-//W3C//DTD SVG 1.1//EN"
 "http://www.w3.org/Graphics/SVG/1.1/DTD/svg11.dtd">
<!-- Generated by graphviz version 2.40.1 (20161225.0304)
 -->
<!-- Title: dependencies Pages: 1 -->
<svg width="3574pt" height="496pt"
 viewBox="0.00 0.00 3574.00 496.00" xmlns="http://www.w3.org/2000/svg" xmlns:xlink="http://www.w3.org/1999/xlink">
<g id="graph0" class="graph" transform="scale(1 1) rotate(0) translate(4 492)">
<title>dependencies</title>
<polygon fill="#ffffff" stroke="transparent" points="-4,4 -4,-492 3570,-492 3570,4 -4,4"/>
<text text-anchor="start" x="1762.0091" y="-42.4" font-family="sans-serif" font-weight="bold" font-size="14.00" fill="#000000">Legend</text>
<polygon fill="#ffffb3" stroke="transparent" points="1549,-10 1549,-30 1569,-30 1569,-10 1549,-10"/>
<text text-anchor="start" x="1572.629" y="-15.4" font-family="sans-serif" font-size="14.00" fill="#000000"> &#160;Declarations</text>
<polygon fill="#8dd3c7" stroke="transparent" points="1662,-10 1662,-30 1682,-30 1682,-10 1662,-10"/>
<text text-anchor="start" x="1685.7251" y="-15.4" font-family="sans-serif" font-size="14.00" fill="#000000"> &#160;Module</text>
<polygon fill="#80b1d3" stroke="transparent" points="1748,-10 1748,-30 1768,-30 1768,-10 1748,-10"/>
<text text-anchor="start" x="1771.7812" y="-15.4" font-family="sans-serif" font-size="14.00" fill="#000000"> &#160;Bootstrap</text>
<polygon fill="#fdb462" stroke="transparent" points="1845,-10 1845,-30 1865,-30 1865,-10 1845,-10"/>
<text text-anchor="start" x="1868.6732" y="-15.4" font-family="sans-serif" font-size="14.00" fill="#000000"> &#160;Providers</text>
<polygon fill="#fb8072" stroke="transparent" points="1941,-10 1941,-30 1961,-30 1961,-10 1941,-10"/>
<text text-anchor="start" x="1964.7258" y="-15.4" font-family="sans-serif" font-size="14.00" fill="#000000"> &#160;Exports</text>
<g id="clust1" class="cluster">
<title>cluster_AppModule</title>
<polygon fill="none" stroke="#000000" stroke-dasharray="1,5" points="2112,-138 2112,-480 3558,-480 3558,-138 2112,-138"/>
</g>
<g id="clust2" class="cluster">
<title>cluster_AppModule_declarations</title>
<polygon fill="none" stroke="#000000" points="3428,-290 3428,-342 3550,-342 3550,-290 3428,-290"/>
</g>
<g id="clust4" class="cluster">
<title>cluster_AppModule_imports</title>
<polygon fill="none" stroke="#000000" points="2505,-146 2505,-342 3420,-342 3420,-146 2505,-146"/>
</g>
<g id="clust6" class="cluster">
<title>cluster_AppModule_bootstrap</title>
<polygon fill="none" stroke="#000000" points="2660,-420 2660,-472 2784,-472 2784,-420 2660,-420"/>
</g>
<g id="clust7" class="cluster">
<title>cluster_AppModule_providers</title>
<polygon fill="none" stroke="#000000" points="2120,-290 2120,-342 2497,-342 2497,-290 2120,-290"/>
</g>
<g id="clust8" class="cluster">
<title>cluster_AppRouting</title>
<polygon fill="none" stroke="#000000" stroke-dasharray="1,5" points="1212,-214 1212,-282 1548,-282 1548,-214 1212,-214"/>
</g>
<g id="clust10" class="cluster">
<title>cluster_AppRouting_imports</title>
<polygon fill="none" stroke="#000000" points="1346,-222 1346,-274 1540,-274 1540,-222 1346,-222"/>
</g>
<g id="clust11" class="cluster">
<title>cluster_AppRouting_exports</title>
<polygon fill="none" stroke="#000000" points="1220,-222 1220,-274 1338,-274 1338,-222 1220,-222"/>
</g>
<g id="clust14" class="cluster">
<title>cluster_AuthenticationRoutingModule</title>
<polygon fill="none" stroke="#000000" stroke-dasharray="1,5" points="1078,-70 1078,-198 1292,-198 1292,-70 1078,-70"/>
</g>
<g id="clust16" class="cluster">
<title>cluster_AuthenticationRoutingModule_imports</title>
<polygon fill="none" stroke="#000000" points="1086,-78 1086,-130 1284,-130 1284,-78 1086,-78"/>
</g>
<g id="clust20" class="cluster">
<title>cluster_AuthenticationModule</title>
<polygon fill="none" stroke="#000000" stroke-dasharray="1,5" points="8,-214 8,-282 1176,-282 1176,-214 8,-214"/>
</g>
<g id="clust21" class="cluster">
<title>cluster_AuthenticationModule_declarations</title>
<polygon fill="none" stroke="#000000" points="607,-222 607,-274 1168,-274 1168,-222 607,-222"/>
</g>
<g id="clust25" class="cluster">
<title>cluster_AuthenticationModule_imports</title>
<polygon fill="none" stroke="#000000" points="427,-222 427,-274 599,-274 599,-222 427,-222"/>
</g>
<g id="clust28" class="cluster">
<title>cluster_AuthenticationModule_providers</title>
<polygon fill="none" stroke="#000000" points="16,-222 16,-274 419,-274 419,-222 16,-222"/>
</g>
<g id="clust29" class="cluster">
<title>cluster_CommonModuleRoutingModule</title>
<polygon fill="none" stroke="#000000" stroke-dasharray="1,5" points="854,-146 854,-198 1070,-198 1070,-146 854,-146"/>
</g>
<g id="clust35" class="cluster">
<title>cluster_CommonModuleModule</title>
<polygon fill="none" stroke="#000000" stroke-dasharray="1,5" points="139,-138 139,-206 796,-206 796,-138 139,-138"/>
</g>
<g id="clust36" class="cluster">
<title>cluster_CommonModuleModule_declarations</title>
<polygon fill="none" stroke="#000000" points="315,-146 315,-198 788,-198 788,-146 315,-146"/>
</g>
<g id="clust41" class="cluster">
<title>cluster_CommonModuleModule_exports</title>
<polygon fill="none" stroke="#000000" points="147,-146 147,-198 307,-198 307,-146 147,-146"/>
</g>
<g id="clust44" class="cluster">
<title>cluster_UserModuleModule</title>
<polygon fill="none" stroke="#000000" stroke-dasharray="1,5" points="1300,-138 1300,-206 2104,-206 2104,-138 1300,-138"/>
</g>
<g id="clust45" class="cluster">
<title>cluster_UserModuleModule_declarations</title>
<polygon fill="none" stroke="#000000" points="1606,-146 1606,-198 2096,-198 2096,-146 1606,-146"/>
</g>
<g id="clust49" class="cluster">
<title>cluster_UserModuleModule_imports</title>
<polygon fill="none" stroke="#000000" points="1308,-146 1308,-198 1598,-198 1598,-146 1308,-146"/>
</g>
<g id="clust59" class="cluster">
<title>cluster_UtilModuleModule</title>
<polygon fill="none" stroke="#000000" stroke-dasharray="1,5" points="1556,-214 1556,-282 2104,-282 2104,-214 1556,-214"/>
</g>
<g id="clust60" class="cluster">
<title>cluster_UtilModuleModule_declarations</title>
<polygon fill="none" stroke="#000000" points="1838,-222 1838,-274 2096,-274 2096,-222 1838,-222"/>
</g>
<g id="clust64" class="cluster">
<title>cluster_UtilModuleModule_exports</title>
<polygon fill="none" stroke="#000000" points="1564,-222 1564,-274 1830,-274 1830,-222 1564,-222"/>
</g>
<!-- AppComponent -->
<g id="node1" class="node">
<title>AppComponent</title>
<polygon fill="#ffffb3" stroke="#000000" points="3541.9399,-334 3436.0601,-334 3436.0601,-298 3541.9399,-298 3541.9399,-334"/>
<text text-anchor="middle" x="3489" y="-311.8" font-family="Times,serif" font-size="14.00" fill="#000000">AppComponent</text>
</g>
<!-- AppModule -->
<g id="node2" class="node">
<title>AppModule</title>
<polygon fill="#8dd3c7" stroke="#000000" points="2763.6571,-399 2760.6571,-403 2739.6571,-403 2736.6571,-399 2680.3429,-399 2680.3429,-363 2763.6571,-363 2763.6571,-399"/>
<text text-anchor="middle" x="2722" y="-376.8" font-family="Times,serif" font-size="14.00" fill="#000000">AppModule</text>
</g>
<!-- AppComponent&#45;&gt;AppModule -->
<g id="edge1" class="edge">
<title>AppComponent&#45;&gt;AppModule</title>
<path fill="none" stroke="#000000" d="M3435.9943,-316C3268.2688,-316 2760.1297,-316 2760.1297,-316 2760.1297,-316 2760.1297,-352.8939 2760.1297,-352.8939"/>
<polygon fill="#000000" stroke="#000000" points="2756.6298,-352.8938 2760.1297,-362.8939 2763.6298,-352.8939 2756.6298,-352.8938"/>
</g>
<!-- AppComponent  -->
<g id="node11" class="node">
<title>AppComponent </title>
<polygon fill="#80b1d3" stroke="#000000" points="2776.439,-464 2667.561,-464 2667.561,-428 2776.439,-428 2776.439,-464"/>
<text text-anchor="middle" x="2722" y="-441.8" font-family="Times,serif" font-size="14.00" fill="#000000">AppComponent </text>
</g>
<!-- AppModule&#45;&gt;AppComponent  -->
<g id="edge10" class="edge">
<title>AppModule&#45;&gt;AppComponent </title>
<path fill="none" stroke="#000000" stroke-dasharray="1,5" d="M2722,-399.1061C2722,-399.1061 2722,-417.991 2722,-417.991"/>
<polygon fill="#000000" stroke="#000000" points="2718.5001,-417.9909 2722,-427.991 2725.5001,-417.991 2718.5001,-417.9909"/>
</g>
<!-- CommonModule -->
<g id="node3" class="node">
<title>CommonModule</title>
<polygon fill="#8dd3c7" stroke="#000000" points="2727.6681,-190 2724.6681,-194 2703.6681,-194 2700.6681,-190 2616.3319,-190 2616.3319,-154 2727.6681,-154 2727.6681,-190"/>
<text text-anchor="middle" x="2672" y="-167.8" font-family="Times,serif" font-size="14.00" fill="#000000">CommonModule</text>
</g>
<!-- CommonModule&#45;&gt;AppModule -->
<g id="edge2" class="edge">
<title>CommonModule&#45;&gt;AppModule</title>
<path fill="none" stroke="#000000" d="M2718.3014,-190.1818C2718.3014,-190.1818 2718.3014,-352.7114 2718.3014,-352.7114"/>
<polygon fill="#000000" stroke="#000000" points="2714.8015,-352.7114 2718.3014,-362.7114 2721.8015,-352.7115 2714.8015,-352.7114"/>
</g>
<!-- UserModuleModule -->
<g id="node9" class="node">
<title>UserModuleModule</title>
<polygon fill="#8dd3c7" stroke="#000000" points="2642.5269,-266 2639.5269,-270 2618.5269,-270 2615.5269,-266 2513.4731,-266 2513.4731,-230 2642.5269,-230 2642.5269,-266"/>
<text text-anchor="middle" x="2578" y="-243.8" font-family="Times,serif" font-size="14.00" fill="#000000">UserModuleModule</text>
</g>
<!-- CommonModule&#45;&gt;UserModuleModule -->
<g id="edge38" class="edge">
<title>CommonModule&#45;&gt;UserModuleModule</title>
<path fill="none" stroke="#000000" d="M2636.1138,-190.0109C2636.1138,-190.0109 2636.1138,-219.855 2636.1138,-219.855"/>
<polygon fill="#000000" stroke="#000000" points="2632.6139,-219.8549 2636.1138,-229.855 2639.6139,-219.855 2632.6139,-219.8549"/>
</g>
<!-- AuthenticationModule -->
<g id="node10" class="node">
<title>AuthenticationModule</title>
<polygon fill="#8dd3c7" stroke="#000000" points="2655.2534,-334 2652.2534,-338 2631.2534,-338 2628.2534,-334 2512.7466,-334 2512.7466,-298 2655.2534,-298 2655.2534,-334"/>
<text text-anchor="middle" x="2584" y="-311.8" font-family="Times,serif" font-size="14.00" fill="#000000">AuthenticationModule</text>
</g>
<!-- CommonModule&#45;&gt;AuthenticationModule -->
<g id="edge20" class="edge">
<title>CommonModule&#45;&gt;AuthenticationModule</title>
<path fill="none" stroke="#000000" d="M2649.0698,-190.2377C2649.0698,-190.2377 2649.0698,-287.9104 2649.0698,-287.9104"/>
<polygon fill="#000000" stroke="#000000" points="2645.5699,-287.9103 2649.0698,-297.9104 2652.5699,-287.9104 2645.5699,-287.9103"/>
</g>
<!-- CommonModuleModule -->
<g id="node21" class="node">
<title>CommonModuleModule</title>
<polygon fill="#8dd3c7" stroke="#000000" points="590.7176,-266 587.7176,-270 566.7176,-270 563.7176,-266 435.2824,-266 435.2824,-230 590.7176,-230 590.7176,-266"/>
<text text-anchor="middle" x="513" y="-243.8" font-family="Times,serif" font-size="14.00" fill="#000000">CommonModuleModule</text>
</g>
<!-- CommonModule&#45;&gt;CommonModuleModule -->
<g id="edge32" class="edge">
<title>CommonModule&#45;&gt;CommonModuleModule</title>
<path fill="none" stroke="#000000" d="M2629.4646,-190.027C2629.4646,-206.3976 2629.4646,-228 2629.4646,-228 2629.4646,-228 568.5546,-228 568.5546,-228 568.5546,-228 568.5546,-228.1846 568.5546,-228.1846"/>
<polygon fill="#000000" stroke="#000000" points="565.0552,-219.8455 568.5546,-229.8457 572.0552,-219.8459 565.0552,-219.8455"/>
</g>
<!-- UtilModuleModule -->
<g id="node33" class="node">
<title>UtilModuleModule</title>
<polygon fill="#8dd3c7" stroke="#000000" points="1590.3781,-190 1587.3781,-194 1566.3781,-194 1563.3781,-190 1465.6219,-190 1465.6219,-154 1590.3781,-154 1590.3781,-190"/>
<text text-anchor="middle" x="1528" y="-167.8" font-family="Times,serif" font-size="14.00" fill="#000000">UtilModuleModule</text>
</g>
<!-- CommonModule&#45;&gt;UtilModuleModule -->
<g id="edge46" class="edge">
<title>CommonModule&#45;&gt;UtilModuleModule</title>
<path fill="none" stroke="#000000" d="M2622.8154,-190.08C2622.8154,-191.8464 2622.8154,-193 2622.8154,-193 2622.8154,-193 1582.6019,-193 1582.6019,-193 1582.6019,-193 1582.6019,-192.708 1582.6019,-192.708"/>
<polygon fill="#000000" stroke="#000000" points="1586.1023,-200.0799 1582.6019,-190.08 1579.1023,-200.0802 1586.1023,-200.0799"/>
</g>
<!-- BrowserModule -->
<g id="node4" class="node">
<title>BrowserModule</title>
<polygon fill="#8dd3c7" stroke="#000000" points="3156.4734,-190 3153.4734,-194 3132.4734,-194 3129.4734,-190 3049.5266,-190 3049.5266,-154 3156.4734,-154 3156.4734,-190"/>
<text text-anchor="middle" x="3103" y="-167.8" font-family="Times,serif" font-size="14.00" fill="#000000">BrowserModule</text>
</g>
<!-- BrowserModule&#45;&gt;AppModule -->
<g id="edge3" class="edge">
<title>BrowserModule&#45;&gt;AppModule</title>
<path fill="none" stroke="#000000" d="M3103,-190.1818C3103,-241.0302 3103,-381 3103,-381 3103,-381 2773.8635,-381 2773.8635,-381"/>
<polygon fill="#000000" stroke="#000000" points="2773.8636,-377.5001 2763.8635,-381 2773.8635,-384.5001 2773.8636,-377.5001"/>
</g>
<!-- FormsModule -->
<g id="node5" class="node">
<title>FormsModule</title>
<polygon fill="#8dd3c7" stroke="#000000" points="2840.8288,-190 2837.8288,-194 2816.8288,-194 2813.8288,-190 2745.1712,-190 2745.1712,-154 2840.8288,-154 2840.8288,-190"/>
<text text-anchor="middle" x="2793" y="-167.8" font-family="Times,serif" font-size="14.00" fill="#000000">FormsModule</text>
</g>
<!-- FormsModule&#45;&gt;AppModule -->
<g id="edge4" class="edge">
<title>FormsModule&#45;&gt;AppModule</title>
<path fill="none" stroke="#000000" d="M2756.4313,-190.1818C2756.4313,-190.1818 2756.4313,-352.7114 2756.4313,-352.7114"/>
<polygon fill="#000000" stroke="#000000" points="2752.9314,-352.7114 2756.4313,-362.7114 2759.9314,-352.7115 2752.9314,-352.7114"/>
</g>
<!-- FormsModule&#45;&gt;UserModuleModule -->
<g id="edge39" class="edge">
<title>FormsModule&#45;&gt;UserModuleModule</title>
<path fill="none" stroke="#000000" d="M2749.0344,-190.0267C2749.0344,-210.7672 2749.0344,-242 2749.0344,-242 2749.0344,-242 2652.6608,-242 2652.6608,-242"/>
<polygon fill="#000000" stroke="#000000" points="2652.6608,-238.5001 2642.6608,-242 2652.6607,-245.5001 2652.6608,-238.5001"/>
</g>
<!-- FormsModule&#45;&gt;AuthenticationModule -->
<g id="edge22" class="edge">
<title>FormsModule&#45;&gt;AuthenticationModule</title>
<path fill="none" stroke="#000000" d="M2752.7328,-190.2067C2752.7328,-227.0559 2752.7328,-307 2752.7328,-307 2752.7328,-307 2665.5579,-307 2665.5579,-307"/>
<polygon fill="#000000" stroke="#000000" points="2665.5579,-303.5001 2655.5579,-307 2665.5579,-310.5001 2665.5579,-303.5001"/>
</g>
<!-- AngularFireModule.initializeApp(args) -->
<g id="node6" class="node">
<title>AngularFireModule.initializeApp(args)</title>
<polygon fill="#8dd3c7" stroke="#000000" points="3411.7057,-190 3408.7057,-194 3387.7057,-194 3384.7057,-190 3174.2943,-190 3174.2943,-154 3411.7057,-154 3411.7057,-190"/>
<text text-anchor="middle" x="3293" y="-167.8" font-family="Times,serif" font-size="14.00" fill="#000000">AngularFireModule.initializeApp(args)</text>
</g>
<!-- AngularFireModule.initializeApp(args)&#45;&gt;AppModule -->
<g id="edge5" class="edge">
<title>AngularFireModule.initializeApp(args)&#45;&gt;AppModule</title>
<path fill="none" stroke="#000000" d="M3293,-190.2116C3293,-242.6057 3293,-390 3293,-390 3293,-390 2773.987,-390 2773.987,-390"/>
<polygon fill="#000000" stroke="#000000" points="2773.987,-386.5001 2763.987,-390 2773.987,-393.5001 2773.987,-386.5001"/>
</g>
<!-- BrowserAnimationsModule -->
<g id="node7" class="node">
<title>BrowserAnimationsModule</title>
<polygon fill="#8dd3c7" stroke="#000000" points="3031.3019,-190 3028.3019,-194 3007.3019,-194 3004.3019,-190 2858.6981,-190 2858.6981,-154 3031.3019,-154 3031.3019,-190"/>
<text text-anchor="middle" x="2945" y="-167.8" font-family="Times,serif" font-size="14.00" fill="#000000">BrowserAnimationsModule</text>
</g>
<!-- BrowserAnimationsModule&#45;&gt;AppModule -->
<g id="edge6" class="edge">
<title>BrowserAnimationsModule&#45;&gt;AppModule</title>
<path fill="none" stroke="#000000" d="M2945,-190.1014C2945,-239.3332 2945,-372 2945,-372 2945,-372 2773.683,-372 2773.683,-372"/>
<polygon fill="#000000" stroke="#000000" points="2773.683,-368.5001 2763.683,-372 2773.683,-375.5001 2773.683,-368.5001"/>
</g>
<!-- AppRouting -->
<g id="node8" class="node">
<title>AppRouting</title>
<polygon fill="#8dd3c7" stroke="#000000" points="2598.7247,-190 2595.7247,-194 2574.7247,-194 2571.7247,-190 2513.2753,-190 2513.2753,-154 2598.7247,-154 2598.7247,-190"/>
<text text-anchor="middle" x="2556" y="-167.8" font-family="Times,serif" font-size="14.00" fill="#000000">AppRouting</text>
</g>
<!-- AppRouting&#45;&gt;AppModule -->
<g id="edge7" class="edge">
<title>AppRouting&#45;&gt;AppModule</title>
<path fill="none" stroke="#000000" d="M2587.9592,-190.207C2587.9592,-195.5549 2587.9592,-200 2587.9592,-200 2587.9592,-200 2708.769,-200 2708.769,-200 2708.769,-200 2708.769,-352.9833 2708.769,-352.9833"/>
<polygon fill="#000000" stroke="#000000" points="2705.2691,-352.9833 2708.769,-362.9833 2712.2691,-352.9833 2705.2691,-352.9833"/>
</g>
<!-- RouterModule  -->
<g id="node15" class="node">
<title>RouterModule </title>
<polygon fill="#fb8072" stroke="#000000" points="1329.6523,-266 1228.3477,-266 1228.3477,-230 1329.6523,-230 1329.6523,-266"/>
<text text-anchor="middle" x="1279" y="-243.8" font-family="Times,serif" font-size="14.00" fill="#000000">RouterModule </text>
</g>
<!-- AppRouting&#45;&gt;RouterModule  -->
<g id="edge14" class="edge">
<title>AppRouting&#45;&gt;RouterModule </title>
<path fill="none" stroke="#000000" stroke-dasharray="5,2" d="M2524.0409,-190.1274C2524.0409,-200.7109 2524.0409,-212 2524.0409,-212 2524.0409,-212 1325.2017,-212 1325.2017,-212 1325.2017,-212 1325.2017,-219.5782 1325.2017,-219.5782"/>
<polygon fill="#000000" stroke="#000000" points="1321.7018,-219.5781 1325.2017,-229.5782 1328.7018,-219.5782 1321.7018,-219.5781"/>
</g>
<!-- UserModuleModule&#45;&gt;AppModule -->
<g id="edge8" class="edge">
<title>UserModuleModule&#45;&gt;AppModule</title>
<path fill="none" stroke="#000000" d="M2642.8774,-254C2671.7023,-254 2699.2366,-254 2699.2366,-254 2699.2366,-254 2699.2366,-352.804 2699.2366,-352.804"/>
<polygon fill="#000000" stroke="#000000" points="2695.7367,-352.804 2699.2366,-362.804 2702.7367,-352.804 2695.7367,-352.804"/>
</g>
<!-- UserModuleModule&#45;&gt;AuthenticationModule -->
<g id="edge24" class="edge">
<title>UserModuleModule&#45;&gt;AuthenticationModule</title>
<path fill="none" stroke="#000000" d="M2628.3712,-266.2228C2628.3712,-266.2228 2628.3712,-287.7269 2628.3712,-287.7269"/>
<polygon fill="#000000" stroke="#000000" points="2624.8713,-287.7269 2628.3712,-297.7269 2631.8713,-287.727 2624.8713,-287.7269"/>
</g>
<!-- AuthenticationModule&#45;&gt;AppModule -->
<g id="edge9" class="edge">
<title>AuthenticationModule&#45;&gt;AppModule</title>
<path fill="none" stroke="#000000" d="M2655.3851,-325C2674.3714,-325 2689.7042,-325 2689.7042,-325 2689.7042,-325 2689.7042,-352.973 2689.7042,-352.973"/>
<polygon fill="#000000" stroke="#000000" points="2686.2043,-352.973 2689.7042,-362.973 2693.2043,-352.973 2686.2043,-352.973"/>
</g>
<!-- AngularFireAuth -->
<g id="node12" class="node">
<title>AngularFireAuth</title>
<ellipse fill="#fdb462" stroke="#000000" cx="2206" cy="-316" rx="77.5878" ry="18"/>
<text text-anchor="middle" x="2206" y="-311.8" font-family="Times,serif" font-size="14.00" fill="#000000">AngularFireAuth</text>
</g>
<!-- AngularFireAuth&#45;&gt;AppModule -->
<g id="edge11" class="edge">
<title>AngularFireAuth&#45;&gt;AppModule</title>
<path fill="none" stroke="#000000" d="M2206,-334.2843C2206,-355.3211 2206,-387 2206,-387 2206,-387 2670.2106,-387 2670.2106,-387"/>
<polygon fill="#000000" stroke="#000000" points="2670.2107,-390.5001 2680.2106,-387 2670.2106,-383.5001 2670.2107,-390.5001"/>
</g>
<!-- AngularFireDatabase -->
<g id="node13" class="node">
<title>AngularFireDatabase</title>
<ellipse fill="#fdb462" stroke="#000000" cx="2395" cy="-316" rx="93.7359" ry="18"/>
<text text-anchor="middle" x="2395" y="-311.8" font-family="Times,serif" font-size="14.00" fill="#000000">AngularFireDatabase</text>
</g>
<!-- AngularFireDatabase&#45;&gt;AppModule -->
<g id="edge12" class="edge">
<title>AngularFireDatabase&#45;&gt;AppModule</title>
<path fill="none" stroke="#000000" d="M2395,-334.0225C2395,-351.3734 2395,-375 2395,-375 2395,-375 2670.2531,-375 2670.2531,-375"/>
<polygon fill="#000000" stroke="#000000" points="2670.2531,-378.5001 2680.2531,-375 2670.253,-371.5001 2670.2531,-378.5001"/>
</g>
<!-- RouterModule.forRoot(args) -->
<g id="node14" class="node">
<title>RouterModule.forRoot(args)</title>
<polygon fill="#8dd3c7" stroke="#000000" points="1531.8419,-266 1528.8419,-270 1507.8419,-270 1504.8419,-266 1354.1581,-266 1354.1581,-230 1531.8419,-230 1531.8419,-266"/>
<text text-anchor="middle" x="1443" y="-243.8" font-family="Times,serif" font-size="14.00" fill="#000000">RouterModule.forRoot(args)</text>
</g>
<!-- RouterModule.forRoot(args)&#45;&gt;AppRouting -->
<g id="edge13" class="edge">
<title>RouterModule.forRoot(args)&#45;&gt;AppRouting</title>
<path fill="none" stroke="#000000" d="M1498.6159,-229.8056C1498.6159,-221.7218 1498.6159,-214 1498.6159,-214 1498.6159,-214 2545.347,-214 2545.347,-214 2545.347,-214 2545.347,-200.0555 2545.347,-200.0555"/>
<polygon fill="#000000" stroke="#000000" points="2548.847,-200.0555 2545.347,-190.0555 2541.847,-200.0556 2548.847,-200.0555"/>
</g>
<!-- RouterModule.forChild(args) -->
<g id="node16" class="node">
<title>RouterModule.forChild(args)</title>
<polygon fill="#8dd3c7" stroke="#000000" points="1275.7323,-122 1272.7323,-126 1251.7323,-126 1248.7323,-122 1094.2677,-122 1094.2677,-86 1275.7323,-86 1275.7323,-122"/>
<text text-anchor="middle" x="1185" y="-99.8" font-family="Times,serif" font-size="14.00" fill="#000000">RouterModule.forChild(args)</text>
</g>
<!-- AuthenticationRoutingModule -->
<g id="node17" class="node">
<title>AuthenticationRoutingModule</title>
<polygon fill="#8dd3c7" stroke="#000000" points="1283.871,-190 1280.871,-194 1259.871,-194 1256.871,-190 1096.129,-190 1096.129,-154 1283.871,-154 1283.871,-190"/>
<text text-anchor="middle" x="1190" y="-167.8" font-family="Times,serif" font-size="14.00" fill="#000000">AuthenticationRoutingModule</text>
</g>
<!-- RouterModule.forChild(args)&#45;&gt;AuthenticationRoutingModule -->
<g id="edge15" class="edge">
<title>RouterModule.forChild(args)&#45;&gt;AuthenticationRoutingModule</title>
<path fill="none" stroke="#000000" d="M1185.8403,-122.2228C1185.8403,-122.2228 1185.8403,-143.7269 1185.8403,-143.7269"/>
<polygon fill="#000000" stroke="#000000" points="1182.3404,-143.7269 1185.8403,-153.7269 1189.3404,-143.727 1182.3404,-143.7269"/>
</g>
<!-- CommonModuleRoutingModule -->
<g id="node24" class="node">
<title>CommonModuleRoutingModule</title>
<polygon fill="#8dd3c7" stroke="#000000" points="1062.3355,-190 1059.3355,-194 1038.3355,-194 1035.3355,-190 861.6645,-190 861.6645,-154 1062.3355,-154 1062.3355,-190"/>
<text text-anchor="middle" x="962" y="-167.8" font-family="Times,serif" font-size="14.00" fill="#000000">CommonModuleRoutingModule</text>
</g>
<!-- RouterModule.forChild(args)&#45;&gt;CommonModuleRoutingModule -->
<g id="edge27" class="edge">
<title>RouterModule.forChild(args)&#45;&gt;CommonModuleRoutingModule</title>
<path fill="none" stroke="#000000" d="M1094.2974,-104C1032.5586,-104 962,-104 962,-104 962,-104 962,-143.7772 962,-143.7772"/>
<polygon fill="#000000" stroke="#000000" points="958.5001,-143.7772 962,-153.7772 965.5001,-143.7773 958.5001,-143.7772"/>
</g>
<!-- UserRoutingModule -->
<g id="node32" class="node">
<title>UserRoutingModule</title>
<polygon fill="#8dd3c7" stroke="#000000" points="1447.594,-190 1444.594,-194 1423.594,-194 1420.594,-190 1316.406,-190 1316.406,-154 1447.594,-154 1447.594,-190"/>
<text text-anchor="middle" x="1382" y="-167.8" font-family="Times,serif" font-size="14.00" fill="#000000">UserRoutingModule</text>
</g>
<!-- RouterModule.forChild(args)&#45;&gt;UserRoutingModule -->
<g id="edge42" class="edge">
<title>RouterModule.forChild(args)&#45;&gt;UserRoutingModule</title>
<path fill="none" stroke="#000000" d="M1275.7157,-104C1327.4187,-104 1382,-104 1382,-104 1382,-104 1382,-143.7772 1382,-143.7772"/>
<polygon fill="#000000" stroke="#000000" points="1378.5001,-143.7772 1382,-153.7772 1385.5001,-143.7773 1378.5001,-143.7772"/>
</g>
<!-- AuthenticationRoutingModule&#45;&gt;AuthenticationModule -->
<g id="edge21" class="edge">
<title>AuthenticationRoutingModule&#45;&gt;AuthenticationModule</title>
<path fill="none" stroke="#000000" d="M1194.2965,-190.4331C1194.2965,-218.8213 1194.2965,-270 1194.2965,-270 1194.2965,-270 2613.9794,-270 2613.9794,-270 2613.9794,-270 2613.9794,-287.8196 2613.9794,-287.8196"/>
<polygon fill="#000000" stroke="#000000" points="2610.4795,-287.8195 2613.9794,-297.8196 2617.4795,-287.8196 2610.4795,-287.8195"/>
</g>
<!-- AuthenticationRoutingModule&#45;&gt;RouterModule  -->
<g id="edge16" class="edge">
<title>AuthenticationRoutingModule&#45;&gt;RouterModule </title>
<path fill="none" stroke="#000000" stroke-dasharray="5,2" d="M1265.4316,-190.0109C1265.4316,-190.0109 1265.4316,-219.855 1265.4316,-219.855"/>
<polygon fill="#000000" stroke="#000000" points="1261.9317,-219.8549 1265.4316,-229.855 1268.9317,-219.855 1261.9317,-219.8549"/>
</g>
<!-- SignupComponentComponent -->
<g id="node18" class="node">
<title>SignupComponentComponent</title>
<polygon fill="#ffffb3" stroke="#000000" points="1160.3383,-266 973.6617,-266 973.6617,-230 1160.3383,-230 1160.3383,-266"/>
<text text-anchor="middle" x="1067" y="-243.8" font-family="Times,serif" font-size="14.00" fill="#000000">SignupComponentComponent</text>
</g>
<!-- SignupComponentComponent&#45;&gt;AuthenticationModule -->
<g id="edge17" class="edge">
<title>SignupComponentComponent&#45;&gt;AuthenticationModule</title>
<path fill="none" stroke="#000000" d="M1067,-266.0579C1067,-270.4945 1067,-274 1067,-274 1067,-274 2599.5877,-274 2599.5877,-274 2599.5877,-274 2599.5877,-287.9445 2599.5877,-287.9445"/>
<polygon fill="#000000" stroke="#000000" points="2596.0878,-287.9444 2599.5877,-297.9445 2603.0878,-287.9445 2596.0878,-287.9444"/>
</g>
<!-- LoginComponent -->
<g id="node19" class="node">
<title>LoginComponent</title>
<polygon fill="#ffffb3" stroke="#000000" points="955.2758,-266 840.7242,-266 840.7242,-230 955.2758,-230 955.2758,-266"/>
<text text-anchor="middle" x="898" y="-243.8" font-family="Times,serif" font-size="14.00" fill="#000000">LoginComponent</text>
</g>
<!-- LoginComponent&#45;&gt;AuthenticationModule -->
<g id="edge18" class="edge">
<title>LoginComponent&#45;&gt;AuthenticationModule</title>
<path fill="none" stroke="#000000" d="M898,-266.1432C898,-272.4611 898,-278 898,-278 898,-278 2585.1959,-278 2585.1959,-278 2585.1959,-278 2585.1959,-287.8903 2585.1959,-287.8903"/>
<polygon fill="#000000" stroke="#000000" points="2581.696,-287.8903 2585.1959,-297.8903 2588.696,-287.8904 2581.696,-287.8903"/>
</g>
<!-- PasswordEqualValidatorDirective -->
<g id="node20" class="node">
<title>PasswordEqualValidatorDirective</title>
<polygon fill="#ffffb3" stroke="#000000" points="822.7626,-266 615.2374,-266 615.2374,-230 822.7626,-230 822.7626,-266"/>
<text text-anchor="middle" x="719" y="-243.8" font-family="Times,serif" font-size="14.00" fill="#000000">PasswordEqualValidatorDirective</text>
</g>
<!-- PasswordEqualValidatorDirective&#45;&gt;AuthenticationModule -->
<g id="edge19" class="edge">
<title>PasswordEqualValidatorDirective&#45;&gt;AuthenticationModule</title>
<path fill="none" stroke="#000000" d="M719,-266.1944C719,-274.2782 719,-282 719,-282 719,-282 2570.8041,-282 2570.8041,-282 2570.8041,-282 2570.8041,-287.8056 2570.8041,-287.8056"/>
<polygon fill="#000000" stroke="#000000" points="2567.3042,-287.8055 2570.8041,-297.8056 2574.3042,-287.8056 2567.3042,-287.8055"/>
</g>
<!-- CommonModuleModule&#45;&gt;AuthenticationModule -->
<g id="edge23" class="edge">
<title>CommonModuleModule&#45;&gt;AuthenticationModule</title>
<path fill="none" stroke="#000000" d="M513,-266.1097C513,-275.897 513,-286 513,-286 513,-286 2556.4123,-286 2556.4123,-286 2556.4123,-286 2556.4123,-287.8568 2556.4123,-287.8568"/>
<polygon fill="#000000" stroke="#000000" points="2552.9124,-287.8568 2556.4123,-297.8568 2559.9124,-287.8568 2552.9124,-287.8568"/>
</g>
<!-- ErrorAlertComponent  -->
<g id="node28" class="node">
<title>ErrorAlertComponent </title>
<polygon fill="#fb8072" stroke="#000000" points="298.6299,-190 155.3701,-190 155.3701,-154 298.6299,-154 298.6299,-190"/>
<text text-anchor="middle" x="227" y="-167.8" font-family="Times,serif" font-size="14.00" fill="#000000">ErrorAlertComponent </text>
</g>
<!-- CommonModuleModule&#45;&gt;ErrorAlertComponent  -->
<g id="edge34" class="edge">
<title>CommonModuleModule&#45;&gt;ErrorAlertComponent </title>
<path fill="none" stroke="#000000" stroke-dasharray="5,2" d="M444.5325,-229.9489C444.5325,-215.627 444.5325,-198 444.5325,-198 444.5325,-198 228.6127,-198 228.6127,-198 228.6127,-198 228.6127,-197.2058 228.6127,-197.2058"/>
<polygon fill="#000000" stroke="#000000" points="232.1129,-200.0578 228.6127,-190.0579 225.1129,-200.0579 232.1129,-200.0578"/>
</g>
<!-- AuthenticationServiceService -->
<g id="node22" class="node">
<title>AuthenticationServiceService</title>
<ellipse fill="#fdb462" stroke="#000000" cx="285" cy="-248" rx="126.1791" ry="18"/>
<text text-anchor="middle" x="285" y="-243.8" font-family="Times,serif" font-size="14.00" fill="#000000">AuthenticationServiceService</text>
</g>
<!-- AuthenticationServiceService&#45;&gt;AuthenticationModule -->
<g id="edge25" class="edge">
<title>AuthenticationServiceService&#45;&gt;AuthenticationModule</title>
<path fill="none" stroke="#000000" d="M285,-266.0555C285,-277.439 285,-290 285,-290 285,-290 2542.0206,-290 2542.0206,-290 2542.0206,-290 2542.0206,-290.7942 2542.0206,-290.7942"/>
<polygon fill="#000000" stroke="#000000" points="2538.5207,-287.9421 2542.0206,-297.9421 2545.5207,-287.9422 2538.5207,-287.9421"/>
</g>
<!-- UserService -->
<g id="node23" class="node">
<title>UserService</title>
<ellipse fill="#fdb462" stroke="#000000" cx="82" cy="-248" rx="58.4415" ry="18"/>
<text text-anchor="middle" x="82" y="-243.8" font-family="Times,serif" font-size="14.00" fill="#000000">UserService</text>
</g>
<!-- UserService&#45;&gt;AuthenticationModule -->
<g id="edge26" class="edge">
<title>UserService&#45;&gt;AuthenticationModule</title>
<path fill="none" stroke="#000000" d="M82,-266.1804C82,-279.0382 82,-294 82,-294 82,-294 2527.6288,-294 2527.6288,-294 2527.6288,-294 2527.6288,-294.3832 2527.6288,-294.3832"/>
<polygon fill="#000000" stroke="#000000" points="2524.1291,-287.832 2527.6288,-297.8321 2531.1291,-287.8322 2524.1291,-287.832"/>
</g>
<!-- CommonModuleRoutingModule&#45;&gt;RouterModule  -->
<g id="edge28" class="edge">
<title>CommonModuleRoutingModule&#45;&gt;RouterModule </title>
<path fill="none" stroke="#000000" stroke-dasharray="5,2" d="M1017.9993,-190.1223C1017.9993,-192.9729 1017.9993,-195 1017.9993,-195 1017.9993,-195 1246.9278,-195 1246.9278,-195 1246.9278,-195 1246.9278,-219.7604 1246.9278,-219.7604"/>
<polygon fill="#000000" stroke="#000000" points="1243.4279,-219.7604 1246.9278,-229.7604 1250.4279,-219.7604 1243.4279,-219.7604"/>
</g>
<!-- CommonModuleRoutingModule&#45;&gt;CommonModuleModule -->
<g id="edge33" class="edge">
<title>CommonModuleRoutingModule&#45;&gt;CommonModuleModule</title>
<path fill="none" stroke="#000000" d="M908.6101,-190.2819C908.6101,-205.9478 908.6101,-226 908.6101,-226 908.6101,-226 546.5004,-226 546.5004,-226 546.5004,-226 546.5004,-226.3832 546.5004,-226.3832"/>
<polygon fill="#000000" stroke="#000000" points="543.0007,-219.832 546.5004,-229.8321 550.0007,-219.8322 543.0007,-219.832"/>
</g>
<!-- AboutComponent -->
<g id="node25" class="node">
<title>AboutComponent</title>
<polygon fill="#ffffb3" stroke="#000000" points="780.3301,-190 663.6699,-190 663.6699,-154 780.3301,-154 780.3301,-190"/>
<text text-anchor="middle" x="722" y="-167.8" font-family="Times,serif" font-size="14.00" fill="#000000">AboutComponent</text>
</g>
<!-- AboutComponent&#45;&gt;CommonModuleModule -->
<g id="edge29" class="edge">
<title>AboutComponent&#45;&gt;CommonModuleModule</title>
<path fill="none" stroke="#000000" d="M722,-190.1243C722,-204.7832 722,-223 722,-223 722,-223 524.4463,-223 524.4463,-223 524.4463,-223 524.4463,-223.6831 524.4463,-223.6831"/>
<polygon fill="#000000" stroke="#000000" points="520.9464,-219.8313 524.4463,-229.8314 527.9464,-219.8314 520.9464,-219.8313"/>
</g>
<!-- PageNotFoundComponent -->
<g id="node26" class="node">
<title>PageNotFoundComponent</title>
<polygon fill="#ffffb3" stroke="#000000" points="645.8243,-190 480.1757,-190 480.1757,-154 645.8243,-154 645.8243,-190"/>
<text text-anchor="middle" x="563" y="-167.8" font-family="Times,serif" font-size="14.00" fill="#000000">PageNotFoundComponent</text>
</g>
<!-- PageNotFoundComponent&#45;&gt;CommonModuleModule -->
<g id="edge30" class="edge">
<title>PageNotFoundComponent&#45;&gt;CommonModuleModule</title>
<path fill="none" stroke="#000000" d="M502.3921,-190.0109C502.3921,-190.0109 502.3921,-219.855 502.3921,-219.855"/>
<polygon fill="#000000" stroke="#000000" points="498.8922,-219.8549 502.3921,-229.855 505.8922,-219.855 498.8922,-219.8549"/>
</g>
<!-- ErrorAlertComponent -->
<g id="node27" class="node">
<title>ErrorAlertComponent</title>
<polygon fill="#ffffb3" stroke="#000000" points="462.6303,-190 323.3697,-190 323.3697,-154 462.6303,-154 462.6303,-190"/>
<text text-anchor="middle" x="393" y="-167.8" font-family="Times,serif" font-size="14.00" fill="#000000">ErrorAlertComponent</text>
</g>
<!-- ErrorAlertComponent&#45;&gt;CommonModuleModule -->
<g id="edge31" class="edge">
<title>ErrorAlertComponent&#45;&gt;CommonModuleModule</title>
<path fill="none" stroke="#000000" d="M453.6737,-190.0109C453.6737,-190.0109 453.6737,-219.855 453.6737,-219.855"/>
<polygon fill="#000000" stroke="#000000" points="450.1738,-219.8549 453.6737,-229.855 457.1738,-219.855 450.1738,-219.8549"/>
</g>
<!-- UserProfileComponent -->
<g id="node29" class="node">
<title>UserProfileComponent</title>
<polygon fill="#ffffb3" stroke="#000000" points="2087.8585,-190 1942.1415,-190 1942.1415,-154 2087.8585,-154 2087.8585,-190"/>
<text text-anchor="middle" x="2015" y="-167.8" font-family="Times,serif" font-size="14.00" fill="#000000">UserProfileComponent</text>
</g>
<!-- UserProfileComponent&#45;&gt;UserModuleModule -->
<g id="edge35" class="edge">
<title>UserProfileComponent&#45;&gt;UserModuleModule</title>
<path fill="none" stroke="#000000" d="M2088.0265,-172C2141.9465,-172 2206,-172 2206,-172 2206,-172 2206,-248 2206,-248 2206,-248 2503.2025,-248 2503.2025,-248"/>
<polygon fill="#000000" stroke="#000000" points="2503.2026,-251.5001 2513.2025,-248 2503.2025,-244.5001 2503.2026,-251.5001"/>
</g>
<!-- EditDialogComponent -->
<g id="node30" class="node">
<title>EditDialogComponent</title>
<polygon fill="#ffffb3" stroke="#000000" points="1924.2688,-190 1781.7312,-190 1781.7312,-154 1924.2688,-154 1924.2688,-190"/>
<text text-anchor="middle" x="1853" y="-167.8" font-family="Times,serif" font-size="14.00" fill="#000000">EditDialogComponent</text>
</g>
<!-- EditDialogComponent&#45;&gt;UserModuleModule -->
<g id="edge36" class="edge">
<title>EditDialogComponent&#45;&gt;UserModuleModule</title>
<path fill="none" stroke="#000000" d="M1898.2237,-190.1432C1898.2237,-196.4611 1898.2237,-202 1898.2237,-202 1898.2237,-202 2577.3061,-202 2577.3061,-202 2577.3061,-202 2577.3061,-219.8196 2577.3061,-219.8196"/>
<polygon fill="#000000" stroke="#000000" points="2573.8062,-219.8195 2577.3061,-229.8196 2580.8062,-219.8196 2573.8062,-219.8195"/>
</g>
<!-- UserFriendsComponent -->
<g id="node31" class="node">
<title>UserFriendsComponent</title>
<polygon fill="#ffffb3" stroke="#000000" points="1763.752,-190 1614.248,-190 1614.248,-154 1763.752,-154 1763.752,-190"/>
<text text-anchor="middle" x="1689" y="-167.8" font-family="Times,serif" font-size="14.00" fill="#000000">UserFriendsComponent</text>
</g>
<!-- UserFriendsComponent&#45;&gt;UserModuleModule -->
<g id="edge37" class="edge">
<title>UserFriendsComponent&#45;&gt;UserModuleModule</title>
<path fill="none" stroke="#000000" d="M1751.8903,-190.0449C1751.8903,-197.749 1751.8903,-205 1751.8903,-205 1751.8903,-205 2566.6531,-205 2566.6531,-205 2566.6531,-205 2566.6531,-219.5146 2566.6531,-219.5146"/>
<polygon fill="#000000" stroke="#000000" points="2563.1531,-219.5145 2566.6531,-229.5146 2570.1531,-219.5146 2563.1531,-219.5145"/>
</g>
<!-- UserRoutingModule&#45;&gt;UserModuleModule -->
<g id="edge40" class="edge">
<title>UserRoutingModule&#45;&gt;UserModuleModule</title>
<path fill="none" stroke="#000000" d="M1400.9381,-190.0664C1400.9381,-199.4587 1400.9381,-209 1400.9381,-209 1400.9381,-209 2534.6939,-209 2534.6939,-209 2534.6939,-209 2534.6939,-219.8701 2534.6939,-219.8701"/>
<polygon fill="#000000" stroke="#000000" points="2531.194,-219.8701 2534.6939,-229.8701 2538.194,-219.8701 2531.194,-219.8701"/>
</g>
<!-- UserRoutingModule&#45;&gt;RouterModule  -->
<g id="edge43" class="edge">
<title>UserRoutingModule&#45;&gt;RouterModule </title>
<path fill="none" stroke="#000000" stroke-dasharray="5,2" d="M1320.8274,-190.0109C1320.8274,-190.0109 1320.8274,-219.855 1320.8274,-219.855"/>
<polygon fill="#000000" stroke="#000000" points="1317.3275,-219.8549 1320.8274,-229.855 1324.3275,-219.855 1317.3275,-219.8549"/>
</g>
<!-- UtilModuleModule&#45;&gt;UserModuleModule -->
<g id="edge41" class="edge">
<title>UtilModuleModule&#45;&gt;UserModuleModule</title>
<path fill="none" stroke="#000000" d="M1587.8266,-190.32C1587.8266,-198.7883 1587.8266,-207 1587.8266,-207 1587.8266,-207 2556,-207 2556,-207 2556,-207 2556,-219.8975 2556,-219.8975"/>
<polygon fill="#000000" stroke="#000000" points="2552.5001,-219.8974 2556,-229.8975 2559.5001,-219.8975 2552.5001,-219.8974"/>
</g>
<!-- FirstpipePipe  -->
<g id="node36" class="node">
<title>FirstpipePipe </title>
<polygon fill="#fb8072" stroke="#000000" points="1822.1621,-266 1727.8379,-266 1727.8379,-230 1822.1621,-230 1822.1621,-266"/>
<text text-anchor="middle" x="1775" y="-243.8" font-family="Times,serif" font-size="14.00" fill="#000000">FirstpipePipe </text>
</g>
<!-- UtilModuleModule&#45;&gt;FirstpipePipe  -->
<g id="edge47" class="edge">
<title>UtilModuleModule&#45;&gt;FirstpipePipe </title>
<path fill="none" stroke="#000000" stroke-dasharray="5,2" d="M1585.2143,-190.2458C1585.2143,-204.1772 1585.2143,-221 1585.2143,-221 1585.2143,-221 1739.9046,-221 1739.9046,-221 1739.9046,-221 1739.9046,-221.8841 1739.9046,-221.8841"/>
<polygon fill="#000000" stroke="#000000" points="1736.4048,-219.8408 1739.9046,-229.8408 1743.4048,-219.8409 1736.4048,-219.8408"/>
</g>
<!-- FriendsDatePipePipe  -->
<g id="node37" class="node">
<title>FriendsDatePipePipe </title>
<polygon fill="#fb8072" stroke="#000000" points="1709.6953,-266 1572.3047,-266 1572.3047,-230 1709.6953,-230 1709.6953,-266"/>
<text text-anchor="middle" x="1641" y="-243.8" font-family="Times,serif" font-size="14.00" fill="#000000">FriendsDatePipePipe </text>
</g>
<!-- UtilModuleModule&#45;&gt;FriendsDatePipePipe  -->
<g id="edge48" class="edge">
<title>UtilModuleModule&#45;&gt;FriendsDatePipePipe </title>
<path fill="none" stroke="#000000" stroke-dasharray="5,2" d="M1574.7649,-190.0109C1574.7649,-190.0109 1574.7649,-219.855 1574.7649,-219.855"/>
<polygon fill="#000000" stroke="#000000" points="1571.265,-219.8549 1574.7649,-229.855 1578.265,-219.855 1571.265,-219.8549"/>
</g>
<!-- FirstpipePipe -->
<g id="node34" class="node">
<title>FirstpipePipe</title>
<polygon fill="#ffffb3" stroke="#000000" points="2088.1626,-266 1997.8374,-266 1997.8374,-230 2088.1626,-230 2088.1626,-266"/>
<text text-anchor="middle" x="2043" y="-243.8" font-family="Times,serif" font-size="14.00" fill="#000000">FirstpipePipe</text>
</g>
<!-- FirstpipePipe&#45;&gt;UtilModuleModule -->
<g id="edge44" class="edge">
<title>FirstpipePipe&#45;&gt;UtilModuleModule</title>
<path fill="none" stroke="#000000" d="M2042.7991,-229.7566C2042.7991,-222.5703 2042.7991,-216 2042.7991,-216 2042.7991,-216 1579.9896,-216 1579.9896,-216 1579.9896,-216 1579.9896,-200.1505 1579.9896,-200.1505"/>
<polygon fill="#000000" stroke="#000000" points="1583.4897,-200.1505 1579.9896,-190.1505 1576.4897,-200.1506 1583.4897,-200.1505"/>
</g>
<!-- FriendsDatePipePipe -->
<g id="node35" class="node">
<title>FriendsDatePipePipe</title>
<polygon fill="#ffffb3" stroke="#000000" points="1980.1951,-266 1845.8049,-266 1845.8049,-230 1980.1951,-230 1980.1951,-266"/>
<text text-anchor="middle" x="1913" y="-243.8" font-family="Times,serif" font-size="14.00" fill="#000000">FriendsDatePipePipe</text>
</g>
<!-- FriendsDatePipePipe&#45;&gt;UtilModuleModule -->
<g id="edge45" class="edge">
<title>FriendsDatePipePipe&#45;&gt;UtilModuleModule</title>
<path fill="none" stroke="#000000" d="M1872.0631,-229.7985C1872.0631,-223.972 1872.0631,-219 1872.0631,-219 1872.0631,-219 1577.3772,-219 1577.3772,-219 1577.3772,-219 1577.3772,-200.037 1577.3772,-200.037"/>
<polygon fill="#000000" stroke="#000000" points="1580.8773,-200.037 1577.3772,-190.037 1573.8773,-200.037 1580.8773,-200.037"/>
</g>
</g>
</svg>
