<?xml version="1.0" encoding="UTF-8" standalone="no"?>
<!DOCTYPE svg PUBLIC "-//W3C//DTD SVG 1.1//EN"
 "http://www.w3.org/Graphics/SVG/1.1/DTD/svg11.dtd">
<!-- Generated by graphviz version 2.40.1 (20161225.0304)
 -->
<!-- Title: dependencies Pages: 1 -->
<svg width="737pt" height="284pt"
 viewBox="0.00 0.00 737.00 284.00" xmlns="http://www.w3.org/2000/svg" xmlns:xlink="http://www.w3.org/1999/xlink">
<g id="graph0" class="graph" transform="scale(1 1) rotate(0) translate(4 280)">
<title>dependencies</title>
<polygon fill="#ffffff" stroke="transparent" points="-4,4 -4,-280 733,-280 733,4 -4,4"/>
<text text-anchor="start" x="343.5091" y="-42.4" font-family="sans-serif" font-weight="bold" font-size="14.00" fill="#000000">Legend</text>
<polygon fill="#ffffb3" stroke="transparent" points="130.5,-10 130.5,-30 150.5,-30 150.5,-10 130.5,-10"/>
<text text-anchor="start" x="154.129" y="-15.4" font-family="sans-serif" font-size="14.00" fill="#000000"> &#160;Declarations</text>
<polygon fill="#8dd3c7" stroke="transparent" points="243.5,-10 243.5,-30 263.5,-30 263.5,-10 243.5,-10"/>
<text text-anchor="start" x="267.2251" y="-15.4" font-family="sans-serif" font-size="14.00" fill="#000000"> &#160;Module</text>
<polygon fill="#80b1d3" stroke="transparent" points="329.5,-10 329.5,-30 349.5,-30 349.5,-10 329.5,-10"/>
<text text-anchor="start" x="353.2812" y="-15.4" font-family="sans-serif" font-size="14.00" fill="#000000"> &#160;Bootstrap</text>
<polygon fill="#fdb462" stroke="transparent" points="426.5,-10 426.5,-30 446.5,-30 446.5,-10 426.5,-10"/>
<text text-anchor="start" x="450.1732" y="-15.4" font-family="sans-serif" font-size="14.00" fill="#000000"> &#160;Providers</text>
<polygon fill="#fb8072" stroke="transparent" points="522.5,-10 522.5,-30 542.5,-30 542.5,-10 522.5,-10"/>
<text text-anchor="start" x="546.2258" y="-15.4" font-family="sans-serif" font-size="14.00" fill="#000000"> &#160;Exports</text>
<g id="clust1" class="cluster">
<title>cluster_CommonModuleModule</title>
<polygon fill="none" stroke="#000000" stroke-dasharray="1,5" points="8,-70 8,-268 721,-268 721,-70 8,-70"/>
</g>
<g id="clust2" class="cluster">
<title>cluster_CommonModuleModule_declarations</title>
<polygon fill="none" stroke="#000000" points="240,-78 240,-130 713,-130 713,-78 240,-78"/>
</g>
<g id="clust6" class="cluster">
<title>cluster_CommonModuleModule_imports</title>
<polygon fill="none" stroke="#000000" points="16,-78 16,-130 232,-130 232,-78 16,-78"/>
</g>
<g id="clust7" class="cluster">
<title>cluster_CommonModuleModule_exports</title>
<polygon fill="none" stroke="#000000" points="336,-208 336,-260 496,-260 496,-208 336,-208"/>
</g>
<!-- AboutComponent -->
<g id="node1" class="node">
<title>AboutComponent</title>
<polygon fill="#ffffb3" stroke="#000000" points="705.3301,-122 588.6699,-122 588.6699,-86 705.3301,-86 705.3301,-122"/>
<text text-anchor="middle" x="647" y="-99.8" font-family="Times,serif" font-size="14.00" fill="#000000">AboutComponent</text>
</g>
<!-- CommonModuleModule -->
<g id="node4" class="node">
<title>CommonModuleModule</title>
<polygon fill="#8dd3c7" stroke="#000000" points="493.7176,-187 490.7176,-191 469.7176,-191 466.7176,-187 338.2824,-187 338.2824,-151 493.7176,-151 493.7176,-187"/>
<text text-anchor="middle" x="416" y="-164.8" font-family="Times,serif" font-size="14.00" fill="#000000">CommonModuleModule</text>
</g>
<!-- AboutComponent&#45;&gt;CommonModuleModule -->
<g id="edge1" class="edge">
<title>AboutComponent&#45;&gt;CommonModuleModule</title>
<path fill="none" stroke="#000000" d="M647,-122.1061C647,-141.3391 647,-169 647,-169 647,-169 503.884,-169 503.884,-169"/>
<polygon fill="#000000" stroke="#000000" points="503.8841,-165.5001 493.884,-169 503.884,-172.5001 503.8841,-165.5001"/>
</g>
<!-- ErrorAlertComponent -->
<g id="node2" class="node">
<title>ErrorAlertComponent</title>
<polygon fill="#ffffb3" stroke="#000000" points="570.6303,-122 431.3697,-122 431.3697,-86 570.6303,-86 570.6303,-122"/>
<text text-anchor="middle" x="501" y="-99.8" font-family="Times,serif" font-size="14.00" fill="#000000">ErrorAlertComponent</text>
</g>
<!-- ErrorAlertComponent&#45;&gt;CommonModuleModule -->
<g id="edge2" class="edge">
<title>ErrorAlertComponent&#45;&gt;CommonModuleModule</title>
<path fill="none" stroke="#000000" d="M462.3969,-122.1061C462.3969,-122.1061 462.3969,-140.991 462.3969,-140.991"/>
<polygon fill="#000000" stroke="#000000" points="458.897,-140.9909 462.3969,-150.991 465.897,-140.991 458.897,-140.9909"/>
</g>
<!-- PageNotFoundComponent -->
<g id="node3" class="node">
<title>PageNotFoundComponent</title>
<polygon fill="#ffffb3" stroke="#000000" points="413.8243,-122 248.1757,-122 248.1757,-86 413.8243,-86 413.8243,-122"/>
<text text-anchor="middle" x="331" y="-99.8" font-family="Times,serif" font-size="14.00" fill="#000000">PageNotFoundComponent</text>
</g>
<!-- PageNotFoundComponent&#45;&gt;CommonModuleModule -->
<g id="edge3" class="edge">
<title>PageNotFoundComponent&#45;&gt;CommonModuleModule</title>
<path fill="none" stroke="#000000" d="M376.0267,-122.1061C376.0267,-122.1061 376.0267,-140.991 376.0267,-140.991"/>
<polygon fill="#000000" stroke="#000000" points="372.5267,-140.9909 376.0267,-150.991 379.5267,-140.991 372.5267,-140.9909"/>
</g>
<!-- ErrorAlertComponent  -->
<g id="node6" class="node">
<title>ErrorAlertComponent </title>
<polygon fill="#fb8072" stroke="#000000" points="487.6299,-252 344.3701,-252 344.3701,-216 487.6299,-216 487.6299,-252"/>
<text text-anchor="middle" x="416" y="-229.8" font-family="Times,serif" font-size="14.00" fill="#000000">ErrorAlertComponent </text>
</g>
<!-- CommonModuleModule&#45;&gt;ErrorAlertComponent  -->
<g id="edge5" class="edge">
<title>CommonModuleModule&#45;&gt;ErrorAlertComponent </title>
<path fill="none" stroke="#000000" stroke-dasharray="5,2" d="M416,-187.1061C416,-187.1061 416,-205.991 416,-205.991"/>
<polygon fill="#000000" stroke="#000000" points="412.5001,-205.9909 416,-215.991 419.5001,-205.991 412.5001,-205.9909"/>
</g>
<!-- CommonModuleRoutingModule -->
<g id="node5" class="node">
<title>CommonModuleRoutingModule</title>
<polygon fill="#8dd3c7" stroke="#000000" points="224.3355,-122 221.3355,-126 200.3355,-126 197.3355,-122 23.6645,-122 23.6645,-86 224.3355,-86 224.3355,-122"/>
<text text-anchor="middle" x="124" y="-99.8" font-family="Times,serif" font-size="14.00" fill="#000000">CommonModuleRoutingModule</text>
</g>
<!-- CommonModuleRoutingModule&#45;&gt;CommonModuleModule -->
<g id="edge4" class="edge">
<title>CommonModuleRoutingModule&#45;&gt;CommonModuleModule</title>
<path fill="none" stroke="#000000" d="M124,-122.1061C124,-141.3391 124,-169 124,-169 124,-169 328.1329,-169 328.1329,-169"/>
<polygon fill="#000000" stroke="#000000" points="328.133,-172.5001 338.1329,-169 328.1329,-165.5001 328.133,-172.5001"/>
</g>
</g>
</svg>
