<?xml version="1.0" encoding="UTF-8" standalone="no"?>
<!DOCTYPE svg PUBLIC "-//W3C//DTD SVG 1.1//EN"
 "http://www.w3.org/Graphics/SVG/1.1/DTD/svg11.dtd">
<!-- Generated by graphviz version 2.40.1 (20161225.0304)
 -->
<!-- Title: dependencies Pages: 1 -->
<svg width="504pt" height="284pt"
 viewBox="0.00 0.00 504.00 284.00" xmlns="http://www.w3.org/2000/svg" xmlns:xlink="http://www.w3.org/1999/xlink">
<g id="graph0" class="graph" transform="scale(1 1) rotate(0) translate(4 280)">
<title>dependencies</title>
<polygon fill="#ffffff" stroke="transparent" points="-4,4 -4,-280 500,-280 500,4 -4,4"/>
<text text-anchor="start" x="227.0091" y="-42.4" font-family="sans-serif" font-weight="bold" font-size="14.00" fill="#000000">Legend</text>
<polygon fill="#ffffb3" stroke="transparent" points="14,-10 14,-30 34,-30 34,-10 14,-10"/>
<text text-anchor="start" x="37.629" y="-15.4" font-family="sans-serif" font-size="14.00" fill="#000000"> &#160;Declarations</text>
<polygon fill="#8dd3c7" stroke="transparent" points="127,-10 127,-30 147,-30 147,-10 127,-10"/>
<text text-anchor="start" x="150.7251" y="-15.4" font-family="sans-serif" font-size="14.00" fill="#000000"> &#160;Module</text>
<polygon fill="#80b1d3" stroke="transparent" points="213,-10 213,-30 233,-30 233,-10 213,-10"/>
<text text-anchor="start" x="236.7812" y="-15.4" font-family="sans-serif" font-size="14.00" fill="#000000"> &#160;Bootstrap</text>
<polygon fill="#fdb462" stroke="transparent" points="310,-10 310,-30 330,-30 330,-10 310,-10"/>
<text text-anchor="start" x="333.6732" y="-15.4" font-family="sans-serif" font-size="14.00" fill="#000000"> &#160;Providers</text>
<polygon fill="#fb8072" stroke="transparent" points="406,-10 406,-30 426,-30 426,-10 406,-10"/>
<text text-anchor="start" x="429.7258" y="-15.4" font-family="sans-serif" font-size="14.00" fill="#000000"> &#160;Exports</text>
<g id="clust1" class="cluster">
<title>cluster_UtilModuleModule</title>
<polygon fill="none" stroke="#000000" stroke-dasharray="1,5" points="107,-70 107,-268 389,-268 389,-70 107,-70"/>
</g>
<g id="clust2" class="cluster">
<title>cluster_UtilModuleModule_declarations</title>
<polygon fill="none" stroke="#000000" points="119,-78 119,-130 377,-130 377,-78 119,-78"/>
</g>
<g id="clust6" class="cluster">
<title>cluster_UtilModuleModule_exports</title>
<polygon fill="none" stroke="#000000" points="115,-208 115,-260 381,-260 381,-208 115,-208"/>
</g>
<!-- FirstpipePipe -->
<g id="node1" class="node">
<title>FirstpipePipe</title>
<polygon fill="#ffffb3" stroke="#000000" points="369.1626,-122 278.8374,-122 278.8374,-86 369.1626,-86 369.1626,-122"/>
<text text-anchor="middle" x="324" y="-99.8" font-family="Times,serif" font-size="14.00" fill="#000000">FirstpipePipe</text>
</g>
<!-- UtilModuleModule -->
<g id="node3" class="node">
<title>UtilModuleModule</title>
<polygon fill="#8dd3c7" stroke="#000000" points="257.3781,-187 254.3781,-191 233.3781,-191 230.3781,-187 132.6219,-187 132.6219,-151 257.3781,-151 257.3781,-187"/>
<text text-anchor="middle" x="195" y="-164.8" font-family="Times,serif" font-size="14.00" fill="#000000">UtilModuleModule</text>
</g>
<!-- FirstpipePipe&#45;&gt;UtilModuleModule -->
<g id="edge1" class="edge">
<title>FirstpipePipe&#45;&gt;UtilModuleModule</title>
<path fill="none" stroke="#000000" d="M339.1937,-122.0225C339.1937,-139.3734 339.1937,-163 339.1937,-163 339.1937,-163 267.4068,-163 267.4068,-163"/>
<polygon fill="#000000" stroke="#000000" points="267.4068,-159.5001 257.4068,-163 267.4068,-166.5001 267.4068,-159.5001"/>
</g>
<!-- FriendsDatePipePipe -->
<g id="node2" class="node">
<title>FriendsDatePipePipe</title>
<polygon fill="#ffffb3" stroke="#000000" points="261.1951,-122 126.8049,-122 126.8049,-86 261.1951,-86 261.1951,-122"/>
<text text-anchor="middle" x="194" y="-99.8" font-family="Times,serif" font-size="14.00" fill="#000000">FriendsDatePipePipe</text>
</g>
<!-- FriendsDatePipePipe&#45;&gt;UtilModuleModule -->
<g id="edge2" class="edge">
<title>FriendsDatePipePipe&#45;&gt;UtilModuleModule</title>
<path fill="none" stroke="#000000" d="M195,-122.1061C195,-122.1061 195,-140.991 195,-140.991"/>
<polygon fill="#000000" stroke="#000000" points="191.5001,-140.9909 195,-150.991 198.5001,-140.991 191.5001,-140.9909"/>
</g>
<!-- FirstpipePipe  -->
<g id="node4" class="node">
<title>FirstpipePipe </title>
<polygon fill="#fb8072" stroke="#000000" points="373.1621,-252 278.8379,-252 278.8379,-216 373.1621,-216 373.1621,-252"/>
<text text-anchor="middle" x="326" y="-229.8" font-family="Times,serif" font-size="14.00" fill="#000000">FirstpipePipe </text>
</g>
<!-- UtilModuleModule&#45;&gt;FirstpipePipe  -->
<g id="edge3" class="edge">
<title>UtilModuleModule&#45;&gt;FirstpipePipe </title>
<path fill="none" stroke="#000000" stroke-dasharray="5,2" d="M257.7004,-175C284.2035,-175 309.0563,-175 309.0563,-175 309.0563,-175 309.0563,-205.9775 309.0563,-205.9775"/>
<polygon fill="#000000" stroke="#000000" points="305.5564,-205.9774 309.0563,-215.9775 312.5564,-205.9775 305.5564,-205.9774"/>
</g>
<!-- FriendsDatePipePipe  -->
<g id="node5" class="node">
<title>FriendsDatePipePipe </title>
<polygon fill="#fb8072" stroke="#000000" points="260.6953,-252 123.3047,-252 123.3047,-216 260.6953,-216 260.6953,-252"/>
<text text-anchor="middle" x="192" y="-229.8" font-family="Times,serif" font-size="14.00" fill="#000000">FriendsDatePipePipe </text>
</g>
<!-- UtilModuleModule&#45;&gt;FriendsDatePipePipe  -->
<g id="edge4" class="edge">
<title>UtilModuleModule&#45;&gt;FriendsDatePipePipe </title>
<path fill="none" stroke="#000000" stroke-dasharray="5,2" d="M195,-187.1061C195,-187.1061 195,-205.991 195,-205.991"/>
<polygon fill="#000000" stroke="#000000" points="191.5001,-205.9909 195,-215.991 198.5001,-205.991 191.5001,-205.9909"/>
</g>
</g>
</svg>
