<?xml version="1.0" encoding="UTF-8" standalone="no"?>
<!DOCTYPE svg PUBLIC "-//W3C//DTD SVG 1.1//EN"
 "http://www.w3.org/Graphics/SVG/1.1/DTD/svg11.dtd">
<!-- Generated by graphviz version 2.40.1 (20161225.0304)
 -->
<!-- Title: dependencies Pages: 1 -->
<svg width="2041pt" height="284pt"
 viewBox="0.00 0.00 2041.00 284.00" xmlns="http://www.w3.org/2000/svg" xmlns:xlink="http://www.w3.org/1999/xlink">
<g id="graph0" class="graph" transform="scale(1 1) rotate(0) translate(4 280)">
<title>dependencies</title>
<polygon fill="#ffffff" stroke="transparent" points="-4,4 -4,-280 2037,-280 2037,4 -4,4"/>
<text text-anchor="start" x="995.5091" y="-42.4" font-family="sans-serif" font-weight="bold" font-size="14.00" fill="#000000">Legend</text>
<polygon fill="#ffffb3" stroke="transparent" points="782.5,-10 782.5,-30 802.5,-30 802.5,-10 782.5,-10"/>
<text text-anchor="start" x="806.129" y="-15.4" font-family="sans-serif" font-size="14.00" fill="#000000"> &#160;Declarations</text>
<polygon fill="#8dd3c7" stroke="transparent" points="895.5,-10 895.5,-30 915.5,-30 915.5,-10 895.5,-10"/>
<text text-anchor="start" x="919.2251" y="-15.4" font-family="sans-serif" font-size="14.00" fill="#000000"> &#160;Module</text>
<polygon fill="#80b1d3" stroke="transparent" points="981.5,-10 981.5,-30 1001.5,-30 1001.5,-10 981.5,-10"/>
<text text-anchor="start" x="1005.2812" y="-15.4" font-family="sans-serif" font-size="14.00" fill="#000000"> &#160;Bootstrap</text>
<polygon fill="#fdb462" stroke="transparent" points="1078.5,-10 1078.5,-30 1098.5,-30 1098.5,-10 1078.5,-10"/>
<text text-anchor="start" x="1102.1732" y="-15.4" font-family="sans-serif" font-size="14.00" fill="#000000"> &#160;Providers</text>
<polygon fill="#fb8072" stroke="transparent" points="1174.5,-10 1174.5,-30 1194.5,-30 1194.5,-10 1174.5,-10"/>
<text text-anchor="start" x="1198.2258" y="-15.4" font-family="sans-serif" font-size="14.00" fill="#000000"> &#160;Exports</text>
<g id="clust1" class="cluster">
<title>cluster_AppModule</title>
<polygon fill="none" stroke="#000000" stroke-dasharray="1,5" points="8,-70 8,-268 2025,-268 2025,-70 8,-70"/>
</g>
<g id="clust2" class="cluster">
<title>cluster_AppModule_declarations</title>
<polygon fill="none" stroke="#000000" points="146,-78 146,-130 2017,-130 2017,-78 146,-78"/>
</g>
<g id="clust15" class="cluster">
<title>cluster_AppModule_imports</title>
<polygon fill="none" stroke="#000000" points="16,-78 16,-130 138,-130 138,-78 16,-78"/>
</g>
<g id="clust17" class="cluster">
<title>cluster_AppModule_bootstrap</title>
<polygon fill="none" stroke="#000000" points="877,-208 877,-260 1001,-260 1001,-208 877,-208"/>
</g>
<!-- AppComponent -->
<g id="node1" class="node">
<title>AppComponent</title>
<polygon fill="#ffffb3" stroke="#000000" points="2008.9399,-122 1903.0601,-122 1903.0601,-86 2008.9399,-86 2008.9399,-122"/>
<text text-anchor="middle" x="1956" y="-99.8" font-family="Times,serif" font-size="14.00" fill="#000000">AppComponent</text>
</g>
<!-- AppModule -->
<g id="node13" class="node">
<title>AppModule</title>
<polygon fill="#8dd3c7" stroke="#000000" points="980.6571,-187 977.6571,-191 956.6571,-191 953.6571,-187 897.3429,-187 897.3429,-151 980.6571,-151 980.6571,-187"/>
<text text-anchor="middle" x="939" y="-164.8" font-family="Times,serif" font-size="14.00" fill="#000000">AppModule</text>
</g>
<!-- AppComponent&#45;&gt;AppModule -->
<g id="edge1" class="edge">
<title>AppComponent&#45;&gt;AppModule</title>
<path fill="none" stroke="#000000" d="M1956,-122.0908C1956,-145.1328 1956,-182 1956,-182 1956,-182 990.7636,-182 990.7636,-182"/>
<polygon fill="#000000" stroke="#000000" points="990.7637,-178.5001 980.7636,-182 990.7636,-185.5001 990.7637,-178.5001"/>
</g>
<!-- ParamStudyComponent -->
<g id="node2" class="node">
<title>ParamStudyComponent</title>
<polygon fill="#ffffb3" stroke="#000000" points="1884.7688,-122 1735.2312,-122 1735.2312,-86 1884.7688,-86 1884.7688,-122"/>
<text text-anchor="middle" x="1810" y="-99.8" font-family="Times,serif" font-size="14.00" fill="#000000">ParamStudyComponent</text>
</g>
<!-- ParamStudyComponent&#45;&gt;AppModule -->
<g id="edge2" class="edge">
<title>ParamStudyComponent&#45;&gt;AppModule</title>
<path fill="none" stroke="#000000" d="M1810,-122.0449C1810,-143.6623 1810,-177 1810,-177 1810,-177 990.7167,-177 990.7167,-177"/>
<polygon fill="#000000" stroke="#000000" points="990.7167,-173.5001 980.7167,-177 990.7167,-180.5001 990.7167,-173.5001"/>
</g>
<!-- ParamStudy2Component -->
<g id="node3" class="node">
<title>ParamStudy2Component</title>
<polygon fill="#ffffb3" stroke="#000000" points="1717.2688,-122 1560.7312,-122 1560.7312,-86 1717.2688,-86 1717.2688,-122"/>
<text text-anchor="middle" x="1639" y="-99.8" font-family="Times,serif" font-size="14.00" fill="#000000">ParamStudy2Component</text>
</g>
<!-- ParamStudy2Component&#45;&gt;AppModule -->
<g id="edge3" class="edge">
<title>ParamStudy2Component&#45;&gt;AppModule</title>
<path fill="none" stroke="#000000" d="M1639,-122.2228C1639,-142.3652 1639,-172 1639,-172 1639,-172 990.6919,-172 990.6919,-172"/>
<polygon fill="#000000" stroke="#000000" points="990.6919,-168.5001 980.6919,-172 990.6918,-175.5001 990.6919,-168.5001"/>
</g>
<!-- ParamStudy3Component -->
<g id="node4" class="node">
<title>ParamStudy3Component</title>
<polygon fill="#ffffb3" stroke="#000000" points="1542.2688,-122 1385.7312,-122 1385.7312,-86 1542.2688,-86 1542.2688,-122"/>
<text text-anchor="middle" x="1464" y="-99.8" font-family="Times,serif" font-size="14.00" fill="#000000">ParamStudy3Component</text>
</g>
<!-- ParamStudy3Component&#45;&gt;AppModule -->
<g id="edge4" class="edge">
<title>ParamStudy3Component&#45;&gt;AppModule</title>
<path fill="none" stroke="#000000" d="M1464,-122.2222C1464,-140.8285 1464,-167 1464,-167 1464,-167 991.0755,-167 991.0755,-167"/>
<polygon fill="#000000" stroke="#000000" points="991.0755,-163.5001 981.0755,-167 991.0755,-170.5001 991.0755,-163.5001"/>
</g>
<!-- ParamStudy4Component -->
<g id="node5" class="node">
<title>ParamStudy4Component</title>
<polygon fill="#ffffb3" stroke="#000000" points="1367.2688,-122 1210.7312,-122 1210.7312,-86 1367.2688,-86 1367.2688,-122"/>
<text text-anchor="middle" x="1289" y="-99.8" font-family="Times,serif" font-size="14.00" fill="#000000">ParamStudy4Component</text>
</g>
<!-- ParamStudy4Component&#45;&gt;AppModule -->
<g id="edge5" class="edge">
<title>ParamStudy4Component&#45;&gt;AppModule</title>
<path fill="none" stroke="#000000" d="M1289,-122.0336C1289,-139.0597 1289,-162 1289,-162 1289,-162 990.8705,-162 990.8705,-162"/>
<polygon fill="#000000" stroke="#000000" points="990.8706,-158.5001 980.8705,-162 990.8705,-165.5001 990.8706,-158.5001"/>
</g>
<!-- ParamStudy5Component -->
<g id="node6" class="node">
<title>ParamStudy5Component</title>
<polygon fill="#ffffb3" stroke="#000000" points="1192.2688,-122 1035.7312,-122 1035.7312,-86 1192.2688,-86 1192.2688,-122"/>
<text text-anchor="middle" x="1114" y="-99.8" font-family="Times,serif" font-size="14.00" fill="#000000">ParamStudy5Component</text>
</g>
<!-- ParamStudy5Component&#45;&gt;AppModule -->
<g id="edge6" class="edge">
<title>ParamStudy5Component&#45;&gt;AppModule</title>
<path fill="none" stroke="#000000" d="M1114,-122.2396C1114,-137.5706 1114,-157 1114,-157 1114,-157 990.9169,-157 990.9169,-157"/>
<polygon fill="#000000" stroke="#000000" points="990.9169,-153.5001 980.9169,-157 990.9168,-160.5001 990.9169,-153.5001"/>
</g>
<!-- ParamStudy6Component -->
<g id="node7" class="node">
<title>ParamStudy6Component</title>
<polygon fill="#ffffb3" stroke="#000000" points="1017.2688,-122 860.7312,-122 860.7312,-86 1017.2688,-86 1017.2688,-122"/>
<text text-anchor="middle" x="939" y="-99.8" font-family="Times,serif" font-size="14.00" fill="#000000">ParamStudy6Component</text>
</g>
<!-- ParamStudy6Component&#45;&gt;AppModule -->
<g id="edge7" class="edge">
<title>ParamStudy6Component&#45;&gt;AppModule</title>
<path fill="none" stroke="#000000" d="M939,-122.1061C939,-122.1061 939,-140.991 939,-140.991"/>
<polygon fill="#000000" stroke="#000000" points="935.5001,-140.9909 939,-150.991 942.5001,-140.991 935.5001,-140.9909"/>
</g>
<!-- ConvertAgePipe -->
<g id="node8" class="node">
<title>ConvertAgePipe</title>
<polygon fill="#ffffb3" stroke="#000000" points="842.8118,-122 733.1882,-122 733.1882,-86 842.8118,-86 842.8118,-122"/>
<text text-anchor="middle" x="788" y="-99.8" font-family="Times,serif" font-size="14.00" fill="#000000">ConvertAgePipe</text>
</g>
<!-- ConvertAgePipe&#45;&gt;AppModule -->
<g id="edge8" class="edge">
<title>ConvertAgePipe&#45;&gt;AppModule</title>
<path fill="none" stroke="#000000" d="M788,-122.2396C788,-137.5706 788,-157 788,-157 788,-157 887.3389,-157 887.3389,-157"/>
<polygon fill="#000000" stroke="#000000" points="887.3389,-160.5001 897.3389,-157 887.3388,-153.5001 887.3389,-160.5001"/>
</g>
<!-- ConvertAge2Pipe -->
<g id="node9" class="node">
<title>ConvertAge2Pipe</title>
<polygon fill="#ffffb3" stroke="#000000" points="715.3118,-122 598.6882,-122 598.6882,-86 715.3118,-86 715.3118,-122"/>
<text text-anchor="middle" x="657" y="-99.8" font-family="Times,serif" font-size="14.00" fill="#000000">ConvertAge2Pipe</text>
</g>
<!-- ConvertAge2Pipe&#45;&gt;AppModule -->
<g id="edge9" class="edge">
<title>ConvertAge2Pipe&#45;&gt;AppModule</title>
<path fill="none" stroke="#000000" d="M657,-122.0336C657,-139.0597 657,-162 657,-162 657,-162 887.0863,-162 887.0863,-162"/>
<polygon fill="#000000" stroke="#000000" points="887.0863,-165.5001 897.0863,-162 887.0862,-158.5001 887.0863,-165.5001"/>
</g>
<!-- ConvertAge32Pipe -->
<g id="node10" class="node">
<title>ConvertAge32Pipe</title>
<polygon fill="#ffffb3" stroke="#000000" points="580.8118,-122 457.1882,-122 457.1882,-86 580.8118,-86 580.8118,-122"/>
<text text-anchor="middle" x="519" y="-99.8" font-family="Times,serif" font-size="14.00" fill="#000000">ConvertAge32Pipe</text>
</g>
<!-- ConvertAge32Pipe&#45;&gt;AppModule -->
<g id="edge10" class="edge">
<title>ConvertAge32Pipe&#45;&gt;AppModule</title>
<path fill="none" stroke="#000000" d="M519,-122.2222C519,-140.8285 519,-167 519,-167 519,-167 887.1933,-167 887.1933,-167"/>
<polygon fill="#000000" stroke="#000000" points="887.1933,-170.5001 897.1933,-167 887.1933,-163.5001 887.1933,-170.5001"/>
</g>
<!-- ConvertAgse32Pipe -->
<g id="node11" class="node">
<title>ConvertAgse32Pipe</title>
<polygon fill="#ffffb3" stroke="#000000" points="439.2562,-122 310.7438,-122 310.7438,-86 439.2562,-86 439.2562,-122"/>
<text text-anchor="middle" x="375" y="-99.8" font-family="Times,serif" font-size="14.00" fill="#000000">ConvertAgse32Pipe</text>
</g>
<!-- ConvertAgse32Pipe&#45;&gt;AppModule -->
<g id="edge11" class="edge">
<title>ConvertAgse32Pipe&#45;&gt;AppModule</title>
<path fill="none" stroke="#000000" d="M375,-122.2228C375,-142.3652 375,-172 375,-172 375,-172 887.0691,-172 887.0691,-172"/>
<polygon fill="#000000" stroke="#000000" points="887.0691,-175.5001 897.0691,-172 887.0691,-168.5001 887.0691,-175.5001"/>
</g>
<!-- Convert34agse32Pipe -->
<g id="node12" class="node">
<title>Convert34agse32Pipe</title>
<polygon fill="#ffffb3" stroke="#000000" points="292.3641,-122 153.6359,-122 153.6359,-86 292.3641,-86 292.3641,-122"/>
<text text-anchor="middle" x="223" y="-99.8" font-family="Times,serif" font-size="14.00" fill="#000000">Convert34agse32Pipe</text>
</g>
<!-- Convert34agse32Pipe&#45;&gt;AppModule -->
<g id="edge12" class="edge">
<title>Convert34agse32Pipe&#45;&gt;AppModule</title>
<path fill="none" stroke="#000000" d="M223,-122.0449C223,-143.6623 223,-177 223,-177 223,-177 887.1474,-177 887.1474,-177"/>
<polygon fill="#000000" stroke="#000000" points="887.1474,-180.5001 897.1474,-177 887.1473,-173.5001 887.1474,-180.5001"/>
</g>
<!-- AppComponent  -->
<g id="node15" class="node">
<title>AppComponent </title>
<polygon fill="#80b1d3" stroke="#000000" points="993.439,-252 884.561,-252 884.561,-216 993.439,-216 993.439,-252"/>
<text text-anchor="middle" x="939" y="-229.8" font-family="Times,serif" font-size="14.00" fill="#000000">AppComponent </text>
</g>
<!-- AppModule&#45;&gt;AppComponent  -->
<g id="edge14" class="edge">
<title>AppModule&#45;&gt;AppComponent </title>
<path fill="none" stroke="#000000" stroke-dasharray="1,5" d="M939,-187.1061C939,-187.1061 939,-205.991 939,-205.991"/>
<polygon fill="#000000" stroke="#000000" points="935.5001,-205.9909 939,-215.991 942.5001,-205.991 935.5001,-205.9909"/>
</g>
<!-- BrowserModule -->
<g id="node14" class="node">
<title>BrowserModule</title>
<polygon fill="#8dd3c7" stroke="#000000" points="130.4734,-122 127.4734,-126 106.4734,-126 103.4734,-122 23.5266,-122 23.5266,-86 130.4734,-86 130.4734,-122"/>
<text text-anchor="middle" x="77" y="-99.8" font-family="Times,serif" font-size="14.00" fill="#000000">BrowserModule</text>
</g>
<!-- BrowserModule&#45;&gt;AppModule -->
<g id="edge13" class="edge">
<title>BrowserModule&#45;&gt;AppModule</title>
<path fill="none" stroke="#000000" d="M77,-122.0908C77,-145.1328 77,-182 77,-182 77,-182 887.1326,-182 887.1326,-182"/>
<polygon fill="#000000" stroke="#000000" points="887.1327,-185.5001 897.1326,-182 887.1326,-178.5001 887.1327,-185.5001"/>
</g>
</g>
</svg>
